<svg width="195" height="56" viewBox="0 0 195 56" fill="none" xmlns="http://www.w3.org/2000/svg">
<rect width="195" height="55.8058" rx="13.2312" fill="white"/>
<circle cx="27.9029" cy="27.9029" r="17.9029" fill="#35D2C9" fill-opacity="0.2"/>
<path d="M27.9029 11.5715C27.9029 10.7036 28.6078 9.99284 29.4724 10.0689C32.2963 10.3174 35.0288 11.2339 37.4405 12.7521C40.2968 14.5501 42.5866 17.1189 44.0458 20.1622C45.5051 23.2055 46.0744 26.5992 45.6881 29.9521C45.3018 33.305 43.9756 36.4804 41.8624 39.112C39.7493 41.7437 36.9353 43.7244 33.7449 44.8258C30.5546 45.9271 27.118 46.1042 23.8314 45.3367C20.5447 44.5691 17.542 42.8881 15.1695 40.4876C13.1663 38.4608 11.6814 35.9907 10.8288 33.2871C10.5678 32.4594 11.1095 31.6175 11.957 31.4301C12.8044 31.2426 13.6354 31.7815 13.9118 32.6042C14.6263 34.7305 15.8186 36.673 17.4051 38.2782C19.361 40.2573 21.8366 41.6431 24.5462 42.2759C27.2558 42.9087 30.0891 42.7627 32.7193 41.8547C35.3495 40.9468 37.6695 39.3138 39.4116 37.1441C41.1538 34.9745 42.2472 32.3566 42.5657 29.5924C42.8842 26.8281 42.4148 24.0302 41.2117 21.5212C40.0087 19.0122 38.1208 16.8944 35.7661 15.412C33.8561 14.2096 31.702 13.4651 29.4715 13.2267C28.6085 13.1344 27.9029 12.4395 27.9029 11.5715Z" fill="#35D2C9"/>
<path d="M23.112 34.3984V19.8369H32.5827V22.0482H25.7499V26.0014H32.0921V28.2126H25.7499V32.1872H32.6396V34.3984H23.112Z" fill="#35D2C9"/>
<rect x="52.8125" y="16.8438" width="108.576" height="22.1132" rx="11.0566" fill="#35D2C9"/>
<path d="M64.4844 33.9309V21.8672" stroke="white" stroke-width="2.33492" stroke-linecap="round" stroke-linejoin="round"/>
<path d="M68.3768 25.7587L64.4853 21.8672L60.5938 25.7587" stroke="white" stroke-width="2.33492" stroke-linecap="round" stroke-linejoin="round"/>
<path d="M75.5894 33.3984V22.0776H83.2177V24.051H77.9829V26.7486H82.8252V28.722H77.9829V31.425H83.2398V33.3984H75.5894ZM87.4312 28.4898V33.3984H85.0764V24.9078H87.3207V26.4058H87.4202C87.6081 25.912 87.9232 25.5214 88.3654 25.234C88.8076 24.9428 89.3438 24.7973 89.974 24.7973C90.5636 24.7973 91.0777 24.9262 91.5162 25.1842C91.9548 25.4422 92.2956 25.8107 92.5389 26.2898C92.7821 26.7651 92.9037 27.3327 92.9037 27.9923V33.3984H90.5489V28.4124C90.5526 27.8928 90.4199 27.4874 90.1509 27.1963C89.8819 26.9015 89.5115 26.7541 89.0398 26.7541C88.7229 26.7541 88.4428 26.8223 88.1996 26.9586C87.96 27.095 87.7721 27.294 87.6358 27.5556C87.5031 27.8136 87.4349 28.125 87.4312 28.4898ZM97.8883 33.5366C97.2434 33.5366 96.6593 33.3708 96.1361 33.0391C95.6164 32.7038 95.2037 32.2118 94.8978 31.5632C94.5957 30.911 94.4446 30.1113 94.4446 29.1642C94.4446 28.1913 94.6012 27.3824 94.9144 26.7375C95.2277 26.0889 95.6441 25.6043 96.1637 25.2837C96.687 24.9594 97.26 24.7973 97.8828 24.7973C98.3582 24.7973 98.7544 24.8783 99.0713 25.0405C99.3919 25.1989 99.6499 25.3979 99.8452 25.6375C100.044 25.8733 100.195 26.1055 100.298 26.334H100.37V22.0776H102.72V33.3984H100.398V32.0386H100.298C100.188 32.2745 100.031 32.5085 99.8286 32.7406C99.6296 32.9691 99.3698 33.1589 99.0492 33.31C98.7322 33.4611 98.3453 33.5366 97.8883 33.5366ZM98.6346 31.6627C99.0142 31.6627 99.3348 31.5595 99.5964 31.3532C99.8618 31.1431 100.064 30.8501 100.204 30.4743C100.348 30.0984 100.42 29.658 100.42 29.1531C100.42 28.6483 100.35 28.2097 100.21 27.8375C100.07 27.4653 99.8673 27.1779 99.6019 26.9752C99.3366 26.7725 99.0142 26.6712 98.6346 26.6712C98.2477 26.6712 97.9215 26.7762 97.6562 26.9862C97.3908 27.1963 97.19 27.4874 97.0537 27.8596C96.9173 28.2318 96.8491 28.663 96.8491 29.1531C96.8491 29.6469 96.9173 30.0836 97.0537 30.4632C97.1937 30.8391 97.3945 31.1339 97.6562 31.3476C97.9215 31.5577 98.2477 31.6627 98.6346 31.6627ZM108.492 33.5643C107.633 33.5643 106.891 33.3819 106.264 33.017C105.641 32.6485 105.161 32.1363 104.822 31.4803C104.482 30.8207 104.313 30.056 104.313 29.1863C104.313 28.3092 104.482 27.5427 104.822 26.8867C105.161 26.2271 105.641 25.7149 106.264 25.35C106.891 24.9815 107.633 24.7973 108.492 24.7973C109.351 24.7973 110.091 24.9815 110.714 25.35C111.341 25.7149 111.823 26.2271 112.162 26.8867C112.501 27.5427 112.671 28.3092 112.671 29.1863C112.671 30.056 112.501 30.8207 112.162 31.4803C111.823 32.1363 111.341 32.6485 110.714 33.017C110.091 33.3819 109.351 33.5643 108.492 33.5643ZM108.503 31.7401C108.894 31.7401 109.22 31.6296 109.481 31.4084C109.743 31.1837 109.94 30.8778 110.073 30.4908C110.209 30.1039 110.277 29.6635 110.277 29.1697C110.277 28.6759 110.209 28.2355 110.073 27.8486C109.94 27.4616 109.743 27.1558 109.481 26.931C109.22 26.7062 108.894 26.5938 108.503 26.5938C108.109 26.5938 107.777 26.7062 107.508 26.931C107.243 27.1558 107.042 27.4616 106.905 27.8486C106.773 28.2355 106.706 28.6759 106.706 29.1697C106.706 29.6635 106.773 30.1039 106.905 30.4908C107.042 30.8778 107.243 31.1837 107.508 31.4084C107.777 31.6296 108.109 31.7401 108.503 31.7401ZM114.202 33.3984V24.9078H116.485V26.3893H116.574C116.728 25.8623 116.988 25.4643 117.353 25.1953C117.718 24.9226 118.138 24.7862 118.613 24.7862C118.731 24.7862 118.858 24.7936 118.995 24.8083C119.131 24.8231 119.251 24.8433 119.354 24.8691V26.9586C119.243 26.9254 119.09 26.896 118.895 26.8702C118.7 26.8444 118.521 26.8315 118.359 26.8315C118.013 26.8315 117.703 26.907 117.43 27.0581C117.161 27.2055 116.948 27.4119 116.789 27.6772C116.634 27.9425 116.557 28.2484 116.557 28.5948V33.3984H114.202ZM120.571 36.5824V24.9078H122.893V26.334H122.998C123.101 26.1055 123.251 25.8733 123.446 25.6375C123.645 25.3979 123.903 25.1989 124.22 25.0405C124.54 24.8783 124.938 24.7973 125.414 24.7973C126.033 24.7973 126.604 24.9594 127.127 25.2837C127.651 25.6043 128.069 26.0889 128.382 26.7375C128.695 27.3824 128.852 28.1913 128.852 29.1642C128.852 30.1113 128.699 30.911 128.393 31.5632C128.091 32.2118 127.678 32.7038 127.155 33.0391C126.635 33.3708 126.053 33.5366 125.408 33.5366C124.951 33.5366 124.563 33.4611 124.242 33.31C123.925 33.1589 123.665 32.9691 123.462 32.7406C123.26 32.5085 123.105 32.2745 122.998 32.0386H122.926V36.5824H120.571ZM122.877 29.1531C122.877 29.658 122.947 30.0984 123.087 30.4743C123.227 30.8501 123.429 31.1431 123.695 31.3532C123.96 31.5595 124.282 31.6627 124.662 31.6627C125.045 31.6627 125.37 31.5577 125.635 31.3476C125.9 31.1339 126.101 30.8391 126.237 30.4632C126.377 30.0836 126.447 29.6469 126.447 29.1531C126.447 28.663 126.379 28.2318 126.243 27.8596C126.107 27.4874 125.906 27.1963 125.64 26.9862C125.375 26.7762 125.049 26.6712 124.662 26.6712C124.279 26.6712 123.954 26.7725 123.689 26.9752C123.427 27.1779 123.227 27.4653 123.087 27.8375C122.947 28.2097 122.877 28.6483 122.877 29.1531ZM132.777 28.4898V33.3984H130.422V22.0776H132.71V26.4058H132.81C133.002 25.9047 133.311 25.5122 133.739 25.2284C134.166 24.941 134.702 24.7973 135.347 24.7973C135.937 24.7973 136.451 24.9262 136.889 25.1842C137.332 25.4385 137.674 25.8052 137.918 26.2842C138.164 26.7596 138.286 27.329 138.282 27.9923V33.3984H135.928V28.4124C135.931 27.8891 135.799 27.4819 135.53 27.1908C135.264 26.8996 134.892 26.7541 134.413 26.7541C134.092 26.7541 133.809 26.8223 133.562 26.9586C133.318 27.095 133.127 27.294 132.987 27.5556C132.85 27.8136 132.78 28.125 132.777 28.4898ZM140.136 33.3984V24.9078H142.49V33.3984H140.136ZM141.318 23.8133C140.968 23.8133 140.668 23.6972 140.417 23.4651C140.171 23.2292 140.047 22.9473 140.047 22.6193C140.047 22.295 140.171 22.0168 140.417 21.7846C140.668 21.5488 140.968 21.4309 141.318 21.4309C141.669 21.4309 141.967 21.5488 142.214 21.7846C142.465 22.0168 142.59 22.295 142.59 22.6193C142.59 22.9473 142.465 23.2292 142.214 23.4651C141.967 23.6972 141.669 23.8133 141.318 23.8133ZM146.732 28.4898V33.3984H144.377V24.9078H146.621V26.4058H146.72C146.908 25.912 147.224 25.5214 147.666 25.234C148.108 24.9428 148.644 24.7973 149.274 24.7973C149.864 24.7973 150.378 24.9262 150.817 25.1842C151.255 25.4422 151.596 25.8107 151.839 26.2898C152.082 26.7651 152.204 27.3327 152.204 27.9923V33.3984H149.849V28.4124C149.853 27.8928 149.72 27.4874 149.451 27.1963C149.182 26.9015 148.812 26.7541 148.34 26.7541C148.023 26.7541 147.743 26.8223 147.5 26.9586C147.26 27.095 147.072 27.294 146.936 27.5556C146.803 27.8136 146.735 28.125 146.732 28.4898Z" fill="white"/>
</svg>
