<svg width="195" height="56" viewBox="0 0 195 56" fill="none" xmlns="http://www.w3.org/2000/svg">
<rect width="195" height="55.8058" rx="13.2312" fill="white"/>
<circle cx="27.9029" cy="27.9029" r="17.9029" fill="#45A6FF" fill-opacity="0.2"/>
<path d="M27.9029 11.5715C27.9029 10.7036 28.6079 9.99283 29.4725 10.0689C32.7926 10.3611 35.9768 11.5758 38.6579 13.5906C41.7592 15.9211 44.0197 19.1958 45.099 22.922C46.1782 26.6482 46.018 30.6242 44.6424 34.2514C43.2667 37.8786 40.7501 40.9609 37.4713 43.0343C34.1925 45.1076 30.329 46.0599 26.4622 45.7477C22.5955 45.4355 18.9347 43.8758 16.031 41.3033C13.1273 38.7308 11.1377 35.2848 10.3618 31.4838C9.69097 28.1978 9.95858 24.8003 11.118 21.6755C11.4199 20.8618 12.3642 20.5296 13.1484 20.9016C13.9325 21.2737 14.2579 22.2091 13.9712 23.0284C13.095 25.5325 12.9068 28.2368 13.4414 30.8551C14.0811 33.9888 15.7213 36.8298 18.1153 38.9507C20.5092 41.0716 23.5272 42.3575 26.7151 42.6148C29.903 42.8722 33.0883 42.0871 35.7915 40.3778C38.4946 38.6684 40.5694 36.1273 41.7035 33.1368C42.8377 30.1464 42.9698 26.8685 42.08 23.7965C41.1902 20.7245 39.3266 18.0246 36.7697 16.1033C34.6333 14.4979 32.1095 13.5086 29.4715 13.2267C28.6085 13.1344 27.9029 12.4395 27.9029 11.5715Z" fill="#45A6FF"/>
<path d="M34.1235 27.1177C34.1235 28.6866 33.8296 30.0305 33.2419 31.1491C32.6588 32.263 31.8625 33.1162 30.8529 33.7088C29.848 34.3013 28.708 34.5975 27.4329 34.5975C26.1578 34.5975 25.0155 34.3013 24.0058 33.7088C23.0009 33.1115 22.2046 32.2559 21.6168 31.142C21.0338 30.0233 20.7423 28.6819 20.7423 27.1177C20.7423 25.5487 21.0338 24.2073 21.6168 23.0934C22.2046 21.9747 23.0009 21.1191 24.0058 20.5266C25.0155 19.9341 26.1578 19.6378 27.4329 19.6378C28.708 19.6378 29.848 19.9341 30.8529 20.5266C31.8625 21.1191 32.6588 21.9747 33.2419 23.0934C33.8296 24.2073 34.1235 25.5487 34.1235 27.1177ZM31.4715 27.1177C31.4715 26.0132 31.2984 25.0818 30.9524 24.3234C30.6111 23.5603 30.1371 22.9843 29.5304 22.5956C28.9237 22.2022 28.2245 22.0055 27.4329 22.0055C26.6413 22.0055 25.9422 22.2022 25.3354 22.5956C24.7287 22.9843 24.2523 23.5603 23.9063 24.3234C23.565 25.0818 23.3944 26.0132 23.3944 27.1177C23.3944 28.2221 23.565 29.1559 23.9063 29.9191C24.2523 30.6775 24.7287 31.2534 25.3354 31.6468C25.9422 32.0355 26.6413 32.2299 27.4329 32.2299C28.2245 32.2299 28.9237 32.0355 29.5304 31.6468C30.1371 31.2534 30.6111 30.6775 30.9524 29.9191C31.2984 29.1559 31.4715 28.2221 31.4715 27.1177Z" fill="#45A6FF"/>
<rect x="52.8125" y="16.8438" width="98.5757" height="22.1132" rx="11.0566" fill="#45A6FF"/>
<path d="M64.4844 33.9309V21.8672" stroke="white" stroke-width="2.33492" stroke-linecap="round" stroke-linejoin="round"/>
<path d="M68.3768 25.7587L64.4853 21.8672L60.5938 25.7587" stroke="white" stroke-width="2.33492" stroke-linecap="round" stroke-linejoin="round"/>
<path d="M85.9926 27.738C85.9926 28.9726 85.7586 30.0228 85.2906 30.8888C84.8263 31.7549 84.1924 32.4163 83.3891 32.8733C82.5894 33.3266 81.6902 33.5532 80.6915 33.5532C79.6855 33.5532 78.7826 33.3247 77.9829 32.8678C77.1832 32.4108 76.5512 31.7493 76.0869 30.8833C75.6226 30.0173 75.3904 28.9689 75.3904 27.738C75.3904 26.5035 75.6226 25.4532 76.0869 24.5872C76.5512 23.7212 77.1832 23.0615 77.9829 22.6083C78.7826 22.1513 79.6855 21.9228 80.6915 21.9228C81.6902 21.9228 82.5894 22.1513 83.3891 22.6083C84.1924 23.0615 84.8263 23.7212 85.2906 24.5872C85.7586 25.4532 85.9926 26.5035 85.9926 27.738ZM83.566 27.738C83.566 26.9383 83.4462 26.264 83.2066 25.7149C82.9708 25.1658 82.6373 24.7494 82.2061 24.4656C81.775 24.1818 81.2701 24.04 80.6915 24.04C80.1129 24.04 79.6081 24.1818 79.1769 24.4656C78.7458 24.7494 78.4104 25.1658 78.1709 25.7149C77.935 26.264 77.8171 26.9383 77.8171 27.738C77.8171 28.5377 77.935 29.2121 78.1709 29.7612C78.4104 30.3103 78.7458 30.7267 79.1769 31.0104C79.6081 31.2942 80.1129 31.4361 80.6915 31.4361C81.2701 31.4361 81.775 31.2942 82.2061 31.0104C82.6373 30.7267 82.9708 30.3103 83.2066 29.7612C83.4462 29.2121 83.566 28.5377 83.566 27.738ZM89.6893 24.9078L91.2481 27.8762L92.8457 24.9078H95.2613L92.8014 29.1531L95.3276 33.3984H92.923L91.2481 30.4632L89.6009 33.3984H87.1687L89.6893 29.1531L87.2571 24.9078H89.6893ZM98.1136 36.5824C97.8151 36.5824 97.535 36.5585 97.2734 36.5106C97.0154 36.4663 96.8017 36.4092 96.6322 36.3392L97.1628 34.5814C97.4392 34.6661 97.688 34.7122 97.9091 34.7196C98.1339 34.7269 98.3273 34.6753 98.4895 34.5648C98.6553 34.4542 98.7898 34.2663 98.893 34.001L99.0312 33.6417L95.9854 24.9078H98.4619L100.22 31.1431H100.308L102.083 24.9078H104.576L101.275 34.316C101.117 34.773 100.901 35.171 100.629 35.51C100.36 35.8528 100.019 36.1162 99.6061 36.3005C99.1934 36.4884 98.6959 36.5824 98.1136 36.5824ZM110.297 24.9078V26.6767H105.184V24.9078H110.297ZM106.344 22.8736H108.699V30.7893C108.699 31.0068 108.732 31.1763 108.799 31.2979C108.865 31.4158 108.957 31.4987 109.075 31.5466C109.197 31.5945 109.337 31.6185 109.495 31.6185C109.606 31.6185 109.716 31.6093 109.827 31.5909C109.937 31.5688 110.022 31.5522 110.081 31.5411L110.452 33.2934C110.334 33.3303 110.168 33.3726 109.954 33.4205C109.74 33.4721 109.48 33.5035 109.175 33.5145C108.607 33.5366 108.11 33.4611 107.682 33.2879C107.258 33.1147 106.929 32.8457 106.693 32.4808C106.457 32.116 106.341 31.6554 106.344 31.0989V22.8736ZM115.576 33.5643C114.717 33.5643 113.975 33.3819 113.348 33.017C112.725 32.6485 112.244 32.1363 111.905 31.4803C111.566 30.8207 111.397 30.056 111.397 29.1863C111.397 28.3092 111.566 27.5427 111.905 26.8867C112.244 26.2271 112.725 25.7149 113.348 25.35C113.975 24.9815 114.717 24.7973 115.576 24.7973C116.434 24.7973 117.175 24.9815 117.798 25.35C118.424 25.7149 118.907 26.2271 119.246 26.8867C119.585 27.5427 119.755 28.3092 119.755 29.1863C119.755 30.056 119.585 30.8207 119.246 31.4803C118.907 32.1363 118.424 32.6485 117.798 33.017C117.175 33.3819 116.434 33.5643 115.576 33.5643ZM115.587 31.7401C115.977 31.7401 116.304 31.6296 116.565 31.4084C116.827 31.1837 117.024 30.8778 117.157 30.4908C117.293 30.1039 117.361 29.6635 117.361 29.1697C117.361 28.6759 117.293 28.2355 117.157 27.8486C117.024 27.4616 116.827 27.1558 116.565 26.931C116.304 26.7062 115.977 26.5938 115.587 26.5938C115.193 26.5938 114.861 26.7062 114.592 26.931C114.326 27.1558 114.126 27.4616 113.989 27.8486C113.857 28.2355 113.79 28.6759 113.79 29.1697C113.79 29.6635 113.857 30.1039 113.989 30.4908C114.126 30.8778 114.326 31.1837 114.592 31.4084C114.861 31.6296 115.193 31.7401 115.587 31.7401ZM125.122 33.5643C124.252 33.5643 123.504 33.38 122.878 33.0115C122.255 32.6393 121.776 32.1234 121.441 31.4637C121.109 30.8041 120.943 30.0449 120.943 29.1863C120.943 28.3166 121.111 27.5538 121.446 26.8978C121.785 26.2382 122.266 25.7241 122.889 25.3556C123.512 24.9834 124.252 24.7973 125.111 24.7973C125.852 24.7973 126.5 24.9318 127.057 25.2008C127.613 25.4698 128.054 25.8475 128.378 26.334C128.702 26.8204 128.881 27.3916 128.914 28.0476H126.692C126.629 27.6238 126.464 27.2829 126.195 27.0249C125.929 26.7633 125.581 26.6325 125.15 26.6325C124.785 26.6325 124.466 26.732 124.194 26.931C123.925 27.1263 123.714 27.4119 123.563 27.7878C123.412 28.1637 123.337 28.6188 123.337 29.1531C123.337 29.6948 123.41 30.1555 123.558 30.5351C123.709 30.9146 123.921 31.2039 124.194 31.4029C124.466 31.6019 124.785 31.7014 125.15 31.7014C125.419 31.7014 125.66 31.6461 125.874 31.5356C126.091 31.425 126.27 31.2647 126.41 31.0547C126.554 30.8409 126.648 30.5848 126.692 30.2863H128.914C128.877 30.9349 128.7 31.5061 128.384 31.9999C128.07 32.49 127.637 32.8733 127.085 33.1497C126.532 33.4261 125.878 33.5643 125.122 33.5643ZM130.422 33.3984V24.9078H132.777V33.3984H130.422ZM131.605 23.8133C131.255 23.8133 130.954 23.6972 130.704 23.4651C130.457 23.2292 130.333 22.9473 130.333 22.6193C130.333 22.295 130.457 22.0168 130.704 21.7846C130.954 21.5488 131.255 21.4309 131.605 21.4309C131.955 21.4309 132.253 21.5488 132.5 21.7846C132.751 22.0168 132.876 22.295 132.876 22.6193C132.876 22.9473 132.751 23.2292 132.5 23.4651C132.253 23.6972 131.955 23.8133 131.605 23.8133ZM137.018 28.4898V33.3984H134.663V24.9078H136.907V26.4058H137.007C137.195 25.912 137.51 25.5214 137.952 25.234C138.394 24.9428 138.931 24.7973 139.561 24.7973C140.15 24.7973 140.664 24.9262 141.103 25.1842C141.541 25.4422 141.882 25.8107 142.126 26.2898C142.369 26.7651 142.49 27.3327 142.49 27.9923V33.3984H140.136V28.4124C140.139 27.8928 140.007 27.4874 139.738 27.1963C139.469 26.9015 139.098 26.7541 138.626 26.7541C138.31 26.7541 138.029 26.8223 137.786 26.9586C137.547 27.095 137.359 27.294 137.222 27.5556C137.09 27.8136 137.022 28.125 137.018 28.4898Z" fill="white"/>
</svg>
