<svg width="195" height="56" viewBox="0 0 195 56" fill="none" xmlns="http://www.w3.org/2000/svg">
<rect width="195" height="55.8058" rx="13.2312" fill="white"/>
<circle cx="27.9029" cy="27.9029" r="17.9029" fill="#D06CFF" fill-opacity="0.2"/>
<path d="M27.9029 11.5715C27.9029 10.7036 28.6078 9.99284 29.4724 10.0689C31.3975 10.2384 33.286 10.7187 35.0635 11.4944C37.3221 12.48 39.3528 13.9213 41.0287 15.728C42.7045 17.5347 43.9893 19.668 44.8026 21.9942C45.6159 24.3204 45.9403 26.7894 45.7553 29.2467C45.5703 31.704 44.88 34.0967 43.7276 36.2749C42.5752 38.4532 40.9856 40.37 39.0582 41.9055C37.1308 43.441 34.9071 44.562 32.5264 45.1985C30.6528 45.6993 28.7137 45.8915 26.785 45.7709C25.9187 45.7167 25.3281 44.9084 25.4581 44.0502V44.0502C25.588 43.1921 26.3897 42.6106 27.2568 42.6486C28.7558 42.7142 30.2592 42.5511 31.7147 42.162C33.6774 41.6373 35.5107 40.7131 37.0997 39.4472C38.6887 38.1813 39.9993 36.6009 40.9494 34.8051C41.8995 33.0093 42.4686 31.0367 42.6211 29.0108C42.7736 26.9849 42.5062 24.9493 41.8356 23.0315C41.1651 21.1137 40.1059 19.355 38.7243 17.8655C37.3427 16.376 35.6684 15.1877 33.8063 14.3751C32.4255 13.7725 30.9635 13.3861 29.4715 13.2267C28.6085 13.1344 27.9029 12.4395 27.9029 11.5715V11.5715Z" fill="#D06CFF"/>
<path d="M28.0464 34.3984H23.112V19.8369H28.146C29.5917 19.8369 30.8336 20.1284 31.8717 20.7115C32.9145 21.2898 33.7156 22.1216 34.2749 23.2071C34.8342 24.2926 35.1139 25.5914 35.1139 27.1035C35.1139 28.6203 34.8319 29.9238 34.2678 31.014C33.7085 32.1042 32.9003 32.9409 31.8432 33.5239C30.7909 34.1069 29.5253 34.3984 28.0464 34.3984ZM25.7499 32.1161H27.9185C28.9328 32.1161 29.7789 31.9312 30.4568 31.5615C31.1346 31.187 31.6442 30.6301 31.9854 29.8906C32.3267 29.1464 32.4974 28.2174 32.4974 27.1035C32.4974 25.9895 32.3267 25.0652 31.9854 24.3305C31.6442 23.5911 31.1393 23.0388 30.471 22.6739C29.8074 22.3041 28.9826 22.1193 27.9967 22.1193H25.7499V32.1161Z" fill="#D06CFF"/>
<rect x="52.8125" y="16.8438" width="107.576" height="22.1132" rx="11.0566" fill="#D06CFF"/>
<path d="M64.4844 33.9309V21.8672" stroke="white" stroke-width="2.33492" stroke-linecap="round" stroke-linejoin="round"/>
<path d="M68.3768 25.7587L64.4853 21.8672L60.5938 25.7587" stroke="white" stroke-width="2.33492" stroke-linecap="round" stroke-linejoin="round"/>
<path d="M79.6026 33.3984H75.5894V22.0776H79.6357C80.7744 22.0776 81.7547 22.3042 82.5765 22.7575C83.3983 23.2071 84.0303 23.8539 84.4725 24.6978C84.9184 25.5417 85.1414 26.5514 85.1414 27.727C85.1414 28.9062 84.9184 29.9196 84.4725 30.7672C84.0303 31.6148 83.3946 32.2652 82.5654 32.7185C81.74 33.1718 80.7523 33.3984 79.6026 33.3984ZM77.9829 31.3476H79.5031C80.2106 31.3476 80.8058 31.2223 81.2885 30.9718C81.775 30.7175 82.1398 30.325 82.383 29.7943C82.6299 29.26 82.7534 28.5709 82.7534 27.727C82.7534 26.8904 82.6299 26.2068 82.383 25.6762C82.1398 25.1455 81.7768 24.7549 81.294 24.5043C80.8113 24.2537 80.2161 24.1284 79.5086 24.1284H77.9829V31.3476ZM90.7064 33.5643C89.8478 33.5643 89.1052 33.3819 88.4787 33.017C87.8559 32.6485 87.375 32.1363 87.036 31.4803C86.697 30.8207 86.5274 30.056 86.5274 29.1863C86.5274 28.3092 86.697 27.5427 87.036 26.8867C87.375 26.2271 87.8559 25.7149 88.4787 25.35C89.1052 24.9815 89.8478 24.7973 90.7064 24.7973C91.5651 24.7973 92.3058 24.9815 92.9286 25.35C93.5551 25.7149 94.0378 26.2271 94.3768 26.8867C94.7159 27.5427 94.8854 28.3092 94.8854 29.1863C94.8854 30.056 94.7159 30.8207 94.3768 31.4803C94.0378 32.1363 93.5551 32.6485 92.9286 33.017C92.3058 33.3819 91.5651 33.5643 90.7064 33.5643ZM90.7175 31.7401C91.1081 31.7401 91.4342 31.6296 91.6959 31.4084C91.9575 31.1837 92.1547 30.8778 92.2874 30.4908C92.4237 30.1039 92.4919 29.6635 92.4919 29.1697C92.4919 28.6759 92.4237 28.2355 92.2874 27.8486C92.1547 27.4616 91.9575 27.1558 91.6959 26.931C91.4342 26.7062 91.1081 26.5938 90.7175 26.5938C90.3232 26.5938 89.9915 26.7062 89.7225 26.931C89.4571 27.1558 89.2563 27.4616 89.12 27.8486C88.9873 28.2355 88.921 28.6759 88.921 29.1697C88.921 29.6635 88.9873 30.1039 89.12 30.4908C89.2563 30.8778 89.4571 31.1837 89.7225 31.4084C89.9915 31.6296 90.3232 31.7401 90.7175 31.7401ZM96.4166 36.5824V24.9078H98.7382V26.334H98.8433C98.9465 26.1055 99.0957 25.8733 99.291 25.6375C99.49 25.3979 99.748 25.1989 100.065 25.0405C100.386 24.8783 100.784 24.7973 101.259 24.7973C101.878 24.7973 102.449 24.9594 102.972 25.2837C103.496 25.6043 103.914 26.0889 104.227 26.7375C104.541 27.3824 104.697 28.1913 104.697 29.1642C104.697 30.1113 104.544 30.911 104.238 31.5632C103.936 32.2118 103.523 32.7038 103 33.0391C102.481 33.3708 101.898 33.5366 101.253 33.5366C100.796 33.5366 100.408 33.4611 100.087 33.31C99.7701 33.1589 99.5103 32.9691 99.3076 32.7406C99.1049 32.5085 98.9501 32.2745 98.8433 32.0386H98.7714V36.5824H96.4166ZM98.7217 29.1531C98.7217 29.658 98.7917 30.0984 98.9317 30.4743C99.0717 30.8501 99.2744 31.1431 99.5398 31.3532C99.8051 31.5595 100.128 31.6627 100.507 31.6627C100.89 31.6627 101.215 31.5577 101.48 31.3476C101.745 31.1339 101.946 30.8391 102.083 30.4632C102.223 30.0836 102.293 29.6469 102.293 29.1531C102.293 28.663 102.224 28.2318 102.088 27.8596C101.952 27.4874 101.751 27.1963 101.486 26.9862C101.22 26.7762 100.894 26.6712 100.507 26.6712C100.124 26.6712 99.7996 26.7725 99.5342 26.9752C99.2726 27.1779 99.0717 27.4653 98.9317 27.8375C98.7917 28.2097 98.7217 28.6483 98.7217 29.1531ZM108.688 33.5587C108.146 33.5587 107.664 33.4648 107.24 33.2768C106.816 33.0852 106.481 32.8033 106.234 32.4311C105.991 32.0552 105.869 31.5872 105.869 31.027C105.869 30.5553 105.956 30.1592 106.129 29.8386C106.302 29.518 106.538 29.26 106.836 29.0647C107.135 28.8694 107.474 28.722 107.853 28.6225C108.237 28.523 108.638 28.4529 109.059 28.4124C109.552 28.3608 109.95 28.3129 110.253 28.2687C110.555 28.2208 110.774 28.1508 110.91 28.0586C111.047 27.9665 111.115 27.8302 111.115 27.6496V27.6164C111.115 27.2663 111.004 26.9955 110.783 26.8038C110.566 26.6122 110.256 26.5164 109.855 26.5164C109.431 26.5164 109.094 26.6104 108.843 26.7983C108.592 26.9826 108.427 27.2147 108.345 27.4948L106.168 27.3179C106.278 26.802 106.496 26.3561 106.82 25.9802C107.144 25.6006 107.562 25.3095 108.075 25.1068C108.591 24.9004 109.188 24.7973 109.866 24.7973C110.337 24.7973 110.789 24.8525 111.22 24.9631C111.655 25.0736 112.04 25.245 112.375 25.4772C112.714 25.7093 112.981 26.0078 113.177 26.3727C113.372 26.7338 113.47 27.1668 113.47 27.6717V33.3984H111.236V32.221H111.17C111.034 32.4864 110.851 32.7204 110.623 32.9231C110.394 33.1221 110.12 33.2787 109.799 33.3929C109.479 33.5035 109.108 33.5587 108.688 33.5587ZM109.363 31.9336C109.709 31.9336 110.015 31.8654 110.28 31.7291C110.546 31.589 110.754 31.4011 110.905 31.1652C111.056 30.9294 111.131 30.6622 111.131 30.3637V29.4627C111.058 29.5106 110.956 29.5548 110.827 29.5953C110.702 29.6322 110.56 29.6672 110.402 29.7004C110.243 29.7299 110.085 29.7575 109.926 29.7833C109.768 29.8054 109.624 29.8257 109.495 29.8441C109.219 29.8846 108.977 29.9491 108.771 30.0376C108.565 30.126 108.404 30.2458 108.29 30.3969C108.176 30.5443 108.119 30.7285 108.119 30.9496C108.119 31.2703 108.235 31.5153 108.467 31.6848C108.703 31.8507 109.001 31.9336 109.363 31.9336ZM115.297 33.3984V24.9078H117.541V26.4058H117.64C117.817 25.9083 118.112 25.5159 118.525 25.2284C118.938 24.941 119.431 24.7973 120.006 24.7973C120.589 24.7973 121.084 24.9428 121.493 25.234C121.902 25.5214 122.175 25.912 122.311 26.4058H122.4C122.573 25.9194 122.886 25.5306 123.339 25.2395C123.796 24.9447 124.336 24.7973 124.959 24.7973C125.751 24.7973 126.394 25.0497 126.888 25.5546C127.386 26.0557 127.635 26.767 127.635 27.6883V33.3984H125.285V28.1526C125.285 27.6809 125.16 27.3271 124.909 27.0913C124.659 26.8554 124.346 26.7375 123.97 26.7375C123.542 26.7375 123.209 26.8739 122.969 27.1466C122.73 27.4156 122.61 27.7712 122.61 28.2134V33.3984H120.327V28.1029C120.327 27.6864 120.207 27.3548 119.968 27.1079C119.732 26.861 119.42 26.7375 119.033 26.7375C118.772 26.7375 118.536 26.8038 118.326 26.9365C118.119 27.0655 117.955 27.2479 117.834 27.4837C117.712 27.7159 117.651 27.9886 117.651 28.3019V33.3984H115.297ZM129.495 33.3984V24.9078H131.849V33.3984H129.495ZM130.678 23.8133C130.327 23.8133 130.027 23.6972 129.777 23.4651C129.53 23.2292 129.406 22.9473 129.406 22.6193C129.406 22.295 129.53 22.0168 129.777 21.7846C130.027 21.5488 130.327 21.4309 130.678 21.4309C131.028 21.4309 131.326 21.5488 131.573 21.7846C131.824 22.0168 131.949 22.295 131.949 22.6193C131.949 22.9473 131.824 23.2292 131.573 23.4651C131.326 23.6972 131.028 23.8133 130.678 23.8133ZM136.091 28.4898V33.3984H133.736V24.9078H135.98V26.4058H136.08C136.268 25.912 136.583 25.5214 137.025 25.234C137.467 24.9428 138.003 24.7973 138.633 24.7973C139.223 24.7973 139.737 24.9262 140.176 25.1842C140.614 25.4422 140.955 25.8107 141.198 26.2898C141.441 26.7651 141.563 27.3327 141.563 27.9923V33.3984H139.208V28.4124C139.212 27.8928 139.079 27.4874 138.81 27.1963C138.541 26.9015 138.171 26.7541 137.699 26.7541C137.382 26.7541 137.102 26.8223 136.859 26.9586C136.619 27.095 136.431 27.294 136.295 27.5556C136.162 27.8136 136.094 28.125 136.091 28.4898ZM147.288 33.5643C146.415 33.5643 145.663 33.3874 145.033 33.0336C144.407 32.6761 143.924 32.1713 143.585 31.519C143.246 30.863 143.076 30.0873 143.076 29.1918C143.076 28.3184 143.246 27.5519 143.585 26.8923C143.924 26.2326 144.401 25.7186 145.017 25.35C145.636 24.9815 146.362 24.7973 147.194 24.7973C147.755 24.7973 148.276 24.8875 148.759 25.0681C149.245 25.245 149.669 25.5122 150.03 25.8696C150.395 26.2271 150.679 26.6767 150.881 27.2184C151.084 27.7564 151.186 28.3866 151.186 29.1089V29.7557H144.016V28.2963H148.969C148.969 27.9573 148.895 27.6569 148.748 27.3953C148.6 27.1337 148.396 26.9291 148.134 26.7817C147.876 26.6306 147.576 26.5551 147.233 26.5551C146.876 26.5551 146.559 26.638 146.282 26.8038C146.01 26.966 145.796 27.1852 145.641 27.4616C145.486 27.7343 145.407 28.0384 145.403 28.3737V29.7612C145.403 30.1813 145.481 30.5443 145.636 30.8501C145.794 31.156 146.017 31.3919 146.305 31.5577C146.592 31.7235 146.933 31.8064 147.327 31.8064C147.589 31.8064 147.828 31.7696 148.046 31.6959C148.263 31.6222 148.449 31.5116 148.604 31.3642C148.759 31.2168 148.877 31.0362 148.958 30.8225L151.136 30.9662C151.025 31.4895 150.799 31.9465 150.456 32.3371C150.117 32.7241 149.678 33.0262 149.14 33.2437C148.606 33.4574 147.989 33.5643 147.288 33.5643Z" fill="white"/>
</svg>
