<svg width="22" height="22" viewBox="0 0 22 22" fill="none" xmlns="http://www.w3.org/2000/svg">
<path d="M20.677 7.22121C21.1151 5.05739 19.5797 3.02279 17.4378 2.79262C16.3185 0.150004 12.7052 -0.293648 11.0007 2.08547C9.29688 -0.292737 5.68352 0.148747 4.56357 2.79262C2.42044 3.02297 0.886576 5.05887 1.32442 7.22121C-0.27199 8.55897 -0.43701 10.9431 0.905172 12.4891C-1.3185 15.4837 0.795028 19.8483 4.63119 19.8483C5.85617 22.4038 9.35349 22.7068 11.0007 20.4078C12.6492 22.7087 16.1464 22.4013 17.3701 19.8483C21.1967 19.8568 23.3204 15.4845 21.0961 12.4891C22.4401 10.9412 22.2714 8.55732 20.677 7.22121ZM7.8938 20.5544C5.95573 20.5544 4.83744 18.2773 6.10029 16.7491C6.34433 16.4538 6.30277 16.0167 6.00749 15.7727C5.71221 15.5287 5.27511 15.5703 5.03111 15.8655C4.44801 16.5711 4.13765 17.4848 4.18668 18.4208C1.55693 18.1413 0.38562 14.9971 2.12403 13.0587C2.14306 13.0802 2.79508 12.1481 4.18624 12C4.16335 12.4492 4.22205 12.9034 4.366 13.3438C4.46162 13.6363 4.73319 13.822 5.02508 13.822C5.495 13.822 5.83129 13.3619 5.68443 12.9127C5.28607 11.694 5.95339 10.3784 7.17208 9.98008C7.53615 9.86105 7.7348 9.46946 7.61577 9.10535C7.49675 8.74124 7.10528 8.54245 6.74104 8.66165C6.58231 8.71354 6.42908 8.77613 6.28105 8.84722C6.00471 8.13963 6.19535 7.30378 6.81148 6.79325C7.10641 6.54882 7.14737 6.11162 6.90298 5.81669C6.6586 5.52176 6.22136 5.48084 5.92643 5.72519C4.72526 6.72055 4.44732 8.39373 5.14563 9.69447C4.67783 10.2113 4.56921 10.5944 4.53011 10.5944C3.51216 10.5944 2.57024 10.9258 1.80622 11.4862C0.955063 10.4205 1.1975 8.81458 2.39872 8.06547C2.67544 7.8929 2.79456 7.55086 2.68485 7.2437C2.17535 5.81695 3.13635 4.13884 4.97593 4.13884C5.28945 4.13884 5.5654 3.92778 5.64615 3.62288C5.91564 2.60537 6.83987 1.89474 7.89376 1.89474C9.1759 1.89474 10.219 2.93783 10.219 4.22002V18.2291C10.219 19.5113 9.17595 20.5544 7.8938 20.5544ZM20.0189 11.4862C19.1917 10.8796 18.1886 10.5782 17.2815 10.5951C17.1244 10.2657 16.9304 9.97167 16.6795 9.69447C17.3772 8.39477 17.1009 6.72142 15.8987 5.72519C15.6036 5.4808 15.1665 5.52176 14.9221 5.81669C14.6777 6.11167 14.7188 6.54886 15.0136 6.79325C15.6298 7.30374 15.8204 8.13963 15.5441 8.84722C15.396 8.77613 15.2428 8.71354 15.0841 8.66165C14.72 8.54254 14.3284 8.74128 14.2093 9.10535C14.0903 9.46942 14.289 9.86105 14.653 9.98008C15.8717 10.3784 16.5391 11.694 16.1407 12.9127C16.0217 13.2768 16.2203 13.6684 16.5844 13.7875C16.9465 13.9058 17.3395 13.7097 17.4591 13.3438C17.6031 12.9034 17.6618 12.4492 17.6389 11.9999C19.2685 12.1735 20.5238 13.5593 20.5238 15.2103C20.5238 16.8747 19.2579 18.2487 17.6384 18.4207C17.6874 17.4883 17.3794 16.5737 16.7941 15.8655C16.5501 15.5701 16.1129 15.5287 15.8177 15.7726C15.5224 16.0166 15.4808 16.4538 15.7249 16.749C16.9854 18.2744 15.8704 20.5543 13.9314 20.5543C12.6492 20.5543 11.6061 19.5112 11.6061 18.2291V4.22002C11.6061 2.93788 12.6492 1.89474 13.9314 1.89474C14.9852 1.89474 15.9095 2.60541 16.179 3.62288C16.2617 3.93524 16.5481 4.1498 16.8722 4.13849C18.4967 4.07876 19.694 5.69307 19.1403 7.24375C19.0306 7.5509 19.1497 7.89295 19.4264 8.06551C20.6288 8.81536 20.8691 10.4218 20.0189 11.4862Z" fill="#4D4BA6"/>
</svg>
