<svg width="18" height="18" viewBox="0 0 18 18" fill="none" xmlns="http://www.w3.org/2000/svg">
<path d="M13.7439 1.30802H13.1085V0.665034C13.1085 0.488656 13.0384 0.319502 12.9137 0.194784C12.789 0.0700659 12.6198 0 12.4435 0C12.2671 0 12.0979 0.0700659 11.9732 0.194784C11.8485 0.319502 11.7784 0.488656 11.7784 0.665034V1.30802H5.25385V0.665034C5.25385 0.488656 5.18378 0.319502 5.05907 0.194784C4.93435 0.0700659 4.76519 0 4.58882 0C4.41244 0 4.24328 0.0700659 4.11857 0.194784C3.99385 0.319502 3.92378 0.488656 3.92378 0.665034V1.30802H3.28842C2.41659 1.30903 1.58075 1.65581 0.96427 2.27229C0.34779 2.88877 0.00100865 3.7246 0 4.59644L0 13.7365C0.00100865 14.6083 0.34779 15.4442 0.96427 16.0607C1.58075 16.6771 2.41659 17.0239 3.28842 17.0249H13.7417C14.6135 17.0239 15.4493 16.6771 16.0658 16.0607C16.6823 15.4442 17.0291 14.6083 17.0301 13.7365V4.59644C17.0291 3.7246 16.6823 2.88877 16.0658 2.27229C15.4493 1.65581 14.6135 1.30903 13.7417 1.30802H13.7439ZM3.28842 2.63809H3.92378V3.93494C3.92378 4.11132 3.99385 4.28048 4.11857 4.40519C4.24328 4.52991 4.41244 4.59998 4.58882 4.59998C4.76519 4.59998 4.93435 4.52991 5.05907 4.40519C5.18378 4.28048 5.25385 4.11132 5.25385 3.93494V2.63809H11.7784V3.93494C11.7784 4.11132 11.8485 4.28048 11.9732 4.40519C12.0979 4.52991 12.2671 4.59998 12.4435 4.59998C12.6198 4.59998 12.789 4.52991 12.9137 4.40519C13.0384 4.28048 13.1085 4.11132 13.1085 3.93494V2.63809H13.7439C14.0012 2.63809 14.2561 2.68878 14.4939 2.78728C14.7317 2.88578 14.9478 3.03015 15.1298 3.21215C15.3118 3.39415 15.4561 3.61022 15.5546 3.84802C15.6531 4.08581 15.7038 4.34068 15.7038 4.59807V5.2318H1.33007V4.59644C1.33007 4.07662 1.53657 3.57809 1.90413 3.21052C2.2717 2.84295 2.77023 2.63645 3.29005 2.63645L3.28842 2.63809ZM13.7417 15.6949H3.28842C2.7686 15.6949 2.27007 15.4884 1.9025 15.1208C1.53493 14.7532 1.32843 14.2547 1.32843 13.7349V6.56187H15.7017V13.7365C15.7012 14.2557 15.4948 14.7534 15.1278 15.1206C14.7607 15.4878 14.263 15.6943 13.7439 15.6949H13.7417ZM5.90772 9.17791C5.90772 9.35421 5.83769 9.5233 5.71302 9.64796C5.58835 9.77263 5.41927 9.84267 5.24296 9.84267H3.9363C3.75993 9.84267 3.59077 9.7726 3.46605 9.64788C3.34134 9.52316 3.27127 9.35401 3.27127 9.17763C3.27127 9.00126 3.34134 8.8321 3.46605 8.70738C3.59077 8.58267 3.75993 8.5126 3.9363 8.5126H5.24296C5.41932 8.51274 5.5884 8.5829 5.71305 8.70765C5.8377 8.83241 5.90772 9.00155 5.90772 9.17791ZM13.7629 9.17791C13.7629 9.35421 13.6929 9.5233 13.5682 9.64796C13.4435 9.77263 13.2745 9.84267 13.0981 9.84267H11.7915C11.6151 9.84267 11.446 9.7726 11.3212 9.64788C11.1965 9.52316 11.1265 9.35401 11.1265 9.17763C11.1265 9.00126 11.1965 8.8321 11.3212 8.70738C11.446 8.58267 11.6151 8.5126 11.7915 8.5126H13.0981C13.2745 8.51274 13.4436 8.5829 13.5682 8.70765C13.6929 8.83241 13.7629 9.00155 13.7629 9.17791ZM9.8315 9.17791C9.8315 9.35421 9.76147 9.5233 9.6368 9.64796C9.51213 9.77263 9.34305 9.84267 9.16674 9.84267H7.86009C7.68371 9.84267 7.51455 9.7726 7.38984 9.64788C7.26512 9.52316 7.19505 9.35401 7.19505 9.17763C7.19505 9.00126 7.26512 8.8321 7.38984 8.70738C7.51455 8.58267 7.68371 8.5126 7.86009 8.5126H9.16674C9.3431 8.51274 9.51218 8.5829 9.63683 8.70765C9.76148 8.83241 9.8315 9.00155 9.8315 9.17791ZM5.90772 13.1017C5.90779 13.189 5.89065 13.2755 5.85728 13.3562C5.8239 13.437 5.77495 13.5103 5.71321 13.5721C5.65148 13.6339 5.57817 13.6829 5.49748 13.7163C5.41679 13.7498 5.3303 13.767 5.24296 13.767H3.9363C3.75993 13.767 3.59077 13.6969 3.46605 13.5722C3.34134 13.4475 3.27127 13.2783 3.27127 13.102C3.27127 12.9256 3.34134 12.7564 3.46605 12.6317C3.59077 12.507 3.75993 12.4369 3.9363 12.4369H5.24296C5.41913 12.4371 5.58805 12.5071 5.71267 12.6316C5.83729 12.7561 5.90743 12.925 5.90772 13.1011V13.1017ZM13.7629 13.1017C13.763 13.1891 13.7458 13.2756 13.7124 13.3564C13.679 13.4371 13.63 13.5105 13.5682 13.5723C13.5064 13.6341 13.433 13.6831 13.3523 13.7165C13.2715 13.7499 13.185 13.7671 13.0976 13.767H11.7909C11.6146 13.767 11.4454 13.6969 11.3207 13.5722C11.196 13.4475 11.1259 13.2783 11.1259 13.102C11.1259 12.9256 11.196 12.7564 11.3207 12.6317C11.4454 12.507 11.6146 12.4369 11.7909 12.4369H13.0976C13.2739 12.4369 13.4429 12.5069 13.5677 12.6314C13.6924 12.7559 13.7626 12.9249 13.7629 13.1011V13.1017ZM9.8315 13.1017C9.83158 13.1891 9.81442 13.2756 9.78101 13.3564C9.7476 13.4371 9.69859 13.5105 9.6368 13.5723C9.57501 13.6341 9.50164 13.6831 9.42089 13.7165C9.34013 13.7499 9.25359 13.7671 9.1662 13.767H7.85954C7.68316 13.767 7.51401 13.6969 7.38929 13.5722C7.26457 13.4475 7.19451 13.2783 7.19451 13.102C7.19451 12.9256 7.26457 12.7564 7.38929 12.6317C7.51401 12.507 7.68316 12.4369 7.85954 12.4369H9.1662C9.34246 12.4369 9.51152 12.5069 9.63626 12.6314C9.76099 12.7559 9.83122 12.9249 9.8315 13.1011V13.1017Z" fill="white"/>
</svg>
