<svg width="22" height="22" viewBox="0 0 22 22" fill="none" xmlns="http://www.w3.org/2000/svg">
<path d="M3.2236 3.22357C7.52126 -1.07418 14.4781 -1.07487 18.7764 3.22357C23.0742 7.52132 23.0749 14.478 18.7764 18.7764C14.4788 23.0742 7.52195 23.0748 3.2236 18.7764C-1.0742 14.4787 -1.0748 7.52196 3.2236 3.22357ZM3.68324 17.2087C4.19707 16.7493 4.74671 16.3426 5.32606 15.9922C4.94313 14.6695 4.71627 13.2139 4.66265 11.7008H1.42935C1.57554 13.7403 2.35917 15.6535 3.68324 17.2087ZM20.5707 11.7008H17.3374C17.2838 13.2139 17.0569 14.6695 16.674 15.9922C17.2533 16.3426 17.803 16.7493 18.3168 17.2087C19.6409 15.6535 20.4245 13.7403 20.5707 11.7008ZM18.3168 4.79125C17.8029 5.25073 17.2533 5.65735 16.674 6.00778C17.0569 7.33052 17.2837 8.7861 17.3374 10.2992H20.5707C20.4245 8.25974 19.6409 6.34657 18.3168 4.79125ZM11.7008 6.15264C12.8438 6.07089 13.9459 5.78937 14.9676 5.32496C14.3733 3.79485 13.2779 1.95964 11.7008 1.50485V6.15264ZM11.7008 7.55691V10.2992H15.9351C15.8866 9.01928 15.7053 7.79021 15.4037 6.66565C14.2426 7.17321 12.9939 7.47632 11.7008 7.55691ZM11.7008 11.7008V14.4431C12.9939 14.5237 14.2426 14.8268 15.4037 15.3344C15.7053 14.2098 15.8866 12.9808 15.9351 11.7008H11.7008ZM11.7008 15.8474V20.4952C13.2779 20.0404 14.3733 18.2054 14.9676 16.6751C13.9459 16.2107 12.8438 15.9292 11.7008 15.8474ZM10.2992 15.8474C9.15622 15.9292 8.05415 16.2107 7.03246 16.6751C7.62671 18.2052 8.72207 20.0404 10.2992 20.4952V15.8474ZM10.2992 14.4431V11.7008H6.06486C6.11338 12.9808 6.29473 14.2098 6.59634 15.3344C7.75739 14.8268 9.00608 14.5237 10.2992 14.4431ZM10.2992 10.2992V7.55691C9.00608 7.47632 7.75739 7.17321 6.59634 6.66565C6.29473 7.79021 6.11338 9.01928 6.06486 10.2992H10.2992ZM10.2992 6.15264V1.50489C8.72207 1.95969 7.62666 3.79489 7.03246 5.325C8.05415 5.78937 9.15622 6.07089 10.2992 6.15264ZM7.1513 2.20458C6.2542 2.59742 5.41725 3.1301 4.66698 3.79102C5.02411 4.1059 5.40094 4.39141 5.79442 4.64674C6.14386 3.78154 6.59024 2.94072 7.1513 2.20458ZM16.2056 4.64674C16.5991 4.39141 16.9759 4.1059 17.3331 3.79102C16.5828 3.1301 15.7459 2.59742 14.8488 2.20458C15.4098 2.94081 15.8562 3.78162 16.2056 4.64674ZM16.2056 17.3533C15.8562 18.2185 15.4097 19.0593 14.8487 19.7955C15.7458 19.4026 16.5828 18.8699 17.333 18.209C16.9759 17.8941 16.5991 17.6086 16.2056 17.3533ZM5.79442 17.3533C5.40094 17.6086 5.02411 17.8941 4.66698 18.209C5.41725 18.8699 6.2542 19.4026 7.1513 19.7954C6.59029 19.0594 6.14386 18.2185 5.79442 17.3533ZM4.66261 10.2992C4.71623 8.78615 4.94309 7.33052 5.32602 6.00782C4.74667 5.6574 4.19707 5.25077 3.6832 4.79129C2.35913 6.34657 1.57554 8.25974 1.42931 10.2992H4.66261Z" fill="url(#paint0_linear_1496_2057)" fill-opacity="0.88"/>
<defs>
<linearGradient id="paint0_linear_1496_2057" x1="20.8849" y1="2.74999" x2="-0.505203" y2="3.41974" gradientUnits="userSpaceOnUse">
<stop stop-color="#DE8CFF"/>
<stop offset="0.411947" stop-color="#FF8BDD"/>
<stop offset="0.672342" stop-color="#FFAD87"/>
<stop offset="1" stop-color="#FF9C8A"/>
</linearGradient>
</defs>
</svg>
