<svg width="23" height="23" viewBox="0 0 23 23" fill="none" xmlns="http://www.w3.org/2000/svg">
<path d="M16.254 0H6.2C4.55631 0.0021168 2.98054 0.656009 1.81828 1.81828C0.656009 2.98054 0.0021168 4.55631 0 6.2V16.254C0.0021168 17.8977 0.656009 19.4735 1.81828 20.6357C2.98054 21.798 4.55631 22.4519 6.2 22.454H16.254C17.8977 22.4519 19.4735 21.798 20.6357 20.6357C21.798 19.4735 22.4519 17.8977 22.454 16.254V6.2C22.4519 4.55631 21.798 2.98054 20.6357 1.81828C19.4735 0.656009 17.8977 0.0021168 16.254 0ZM20.454 16.254C20.454 17.3679 20.0115 18.4362 19.2238 19.2238C18.4362 20.0115 17.3679 20.454 16.254 20.454H6.2C5.08609 20.454 4.0178 20.0115 3.23015 19.2238C2.4425 18.4362 2 17.3679 2 16.254V6.2C2 5.08609 2.4425 4.0178 3.23015 3.23015C4.0178 2.4425 5.08609 2 6.2 2H16.254C17.3679 2 18.4362 2.4425 19.2238 3.23015C20.0115 4.0178 20.454 5.08609 20.454 6.2V16.254Z" fill="#858585"/>
<path d="M11.226 5.42188C10.0773 5.42188 8.95434 5.76251 7.99922 6.4007C7.0441 7.03889 6.29967 7.94598 5.86008 9.00725C5.42049 10.0685 5.30547 11.2363 5.52957 12.363C5.75367 13.4896 6.30683 14.5245 7.11909 15.3368C7.93136 16.149 8.96625 16.7022 10.0929 16.9263C11.2195 17.1504 12.3873 17.0354 13.4486 16.5958C14.5099 16.1562 15.417 15.4117 16.0551 14.4566C16.6933 13.5015 17.034 12.3786 17.034 11.2299C17.0303 9.69063 16.4172 8.21549 15.3288 7.12708C14.2404 6.03867 12.7652 5.42557 11.226 5.42188ZM11.226 15.0379C10.473 15.0379 9.73697 14.8146 9.11092 14.3963C8.48486 13.978 7.9969 13.3834 7.70876 12.6877C7.42062 11.9921 7.34523 11.2267 7.49212 10.4882C7.63902 9.74968 8.0016 9.07134 8.53402 8.53892C9.06643 8.0065 9.74478 7.64392 10.4833 7.49703C11.2217 7.35013 11.9872 7.42552 12.6828 7.71367C13.3785 8.00181 13.9731 8.48976 14.3914 9.11582C14.8097 9.74188 15.033 10.4779 15.033 11.2309C15.0316 12.2401 14.6301 13.2077 13.9165 13.9214C13.2028 14.635 12.2352 15.0366 11.226 15.0379Z" fill="#858585"/>
<path d="M17.2804 3.75783C16.9909 3.75783 16.7078 3.84369 16.4671 4.00456C16.2263 4.16542 16.0387 4.39407 15.9278 4.66158C15.817 4.92909 15.788 5.22345 15.8445 5.50744C15.901 5.79143 16.0405 6.05229 16.2452 6.25703C16.4499 6.46178 16.7108 6.60121 16.9948 6.6577C17.2788 6.71419 17.5731 6.6852 17.8407 6.57439C18.1082 6.46358 18.3368 6.27594 18.4977 6.03518C18.6585 5.79443 18.7444 5.51138 18.7444 5.22183C18.7498 5.02938 18.7134 4.83804 18.6376 4.66106C18.5618 4.48408 18.4485 4.32568 18.3054 4.19683C18.1737 4.05734 18.0148 3.9464 17.8385 3.87088C17.6622 3.79536 17.4722 3.75688 17.2804 3.75783Z" fill="#858585"/>
</svg>
