<svg width="22" height="22" viewBox="0 0 22 22" fill="none" xmlns="http://www.w3.org/2000/svg">
<path d="M4.99996 6.83594H0.273438V21.0298H4.99996V6.83594Z" fill="#858585"/>
<path d="M20.5107 8.12581C19.5178 7.042 18.2046 6.5 16.572 6.5C15.9704 6.5 15.4236 6.574 14.9317 6.72209C14.4401 6.87008 14.0248 7.07772 13.6857 7.34511C13.3468 7.6125 13.0769 7.86073 12.8766 8.08979C12.686 8.30736 12.4997 8.56081 12.3179 8.84751V6.8292H7.60547L7.61992 7.51678C7.6296 7.97526 7.63437 9.38836 7.63437 11.7563C7.63437 14.1244 7.62483 17.2133 7.60567 21.0232H12.3179V13.1025C12.3179 12.6156 12.3701 12.229 12.4754 11.9423C12.676 11.4551 12.9789 11.0472 13.3849 10.7179C13.7909 10.3882 14.2945 10.2235 14.8962 10.2235C15.7172 10.2235 16.3213 10.5075 16.7081 11.0757C17.0947 11.6438 17.2881 12.4292 17.2881 13.4318V21.0228H22.0003V12.8879C22 10.7965 21.5038 9.20926 20.5107 8.12581Z" fill="#858585"/>
<path d="M2.66401 0C1.87158 0 1.22949 0.231721 0.737604 0.694711C0.245768 1.1578 0 1.74245 0 2.4492C0 3.14607 0.238694 3.72871 0.716133 4.19646C1.19342 4.66427 1.82372 4.8983 2.60667 4.8983H2.63532C3.43749 4.8983 4.08449 4.66447 4.57618 4.19646C5.06786 3.72871 5.30891 3.14627 5.29943 2.4492C5.2899 1.7425 5.04624 1.1578 4.56895 0.694711C4.09171 0.23152 3.4565 0 2.66401 0Z" fill="#858585"/>
</svg>
