<svg width="22" height="23" viewBox="0 0 22 23" fill="none" xmlns="http://www.w3.org/2000/svg">
<g clip-path="url(#clip0_1211_7675)">
<path d="M12.7617 22.25V18.2969H15.9844C17.0506 18.2969 17.918 17.4295 17.918 16.3633V14.1864L20.8436 12.7476L17.9156 8.42755C17.8081 3.90015 14.0918 0.25 9.53906 0.25C4.91893 0.25 1.16016 4.00878 1.16016 8.62891C1.16016 10.9117 2.09619 13.0986 3.73828 14.6751V22.25H12.7617ZM2.44922 8.62891C2.44922 4.71957 5.62972 1.53906 9.53906 1.53906C13.4484 1.53906 16.6289 4.71957 16.6289 8.62891V8.82673L18.9454 12.2446L16.6289 13.3838V16.3633C16.6289 16.7187 16.3398 17.0078 15.9844 17.0078H11.4727V20.9609H5.02734V14.1057C4.96654 14.0241 2.44922 12.184 2.44922 8.62891Z" fill="#4D4BA6"/>
<path d="M7.95536 12.0045C8.32713 12.3149 9.53906 13.345 9.53906 13.345C9.53906 13.345 10.751 12.3148 11.1228 12.0044C12.9857 10.4494 14.6953 9.1117 14.6953 7.18361C14.6953 5.49515 13.4712 4.11719 11.7949 4.11719C10.7215 4.11719 9.99148 4.64768 9.53906 5.1545C9.08664 4.64772 8.35665 4.11723 7.2832 4.11723C5.60794 4.11723 4.38281 5.49425 4.38281 7.18365C4.38281 9.16653 6.22802 10.5626 7.95536 12.0045ZM7.2832 5.40629C8.41461 5.40629 8.91331 6.48726 8.94549 6.55988C9.51693 6.56374 9.55775 6.56404 10.1292 6.56791L10.1333 6.5582C10.1382 6.54668 10.6306 5.40625 11.7949 5.40625C12.7136 5.40625 13.4062 6.17032 13.4062 7.18361C13.4062 8.41918 12.2358 9.3962 10.2967 11.0148C10.051 11.22 9.79971 11.4297 9.53906 11.65C9.27841 11.4297 9.02718 11.2201 8.78144 11.0149C6.8423 9.39624 5.67187 8.41922 5.67187 7.18361C5.67187 6.17036 6.36462 5.40629 7.2832 5.40629Z" fill="#4D4BA6"/>
</g>
<defs>
<clipPath id="clip0_1211_7675">
<rect width="22" height="22" fill="white" transform="translate(0 0.25)"/>
</clipPath>
</defs>
</svg>
