<svg width="22" height="23" viewBox="0 0 22 23" fill="none" xmlns="http://www.w3.org/2000/svg">
<path fill-rule="evenodd" clip-rule="evenodd" d="M11 20.9609C5.65238 20.9609 1.28906 16.5976 1.28906 11.25C1.28906 5.90238 5.65238 1.53906 11 1.53906C16.3476 1.53906 20.7109 5.90238 20.7109 11.25C20.7109 16.5976 16.3476 20.9609 11 20.9609ZM0 11.25C0 17.3096 4.94045 22.25 11 22.25C17.0596 22.25 22 17.3096 22 11.25C22 5.19045 17.0596 0.249998 11 0.249998C4.94045 0.249998 0 5.19045 0 11.25Z" fill="#4D4BA6"/>
<path fill-rule="evenodd" clip-rule="evenodd" d="M4.67898 9.49816C5.01919 9.60764 5.3892 9.43658 5.50542 9.11608C5.71842 8.52867 6.30441 8.13388 6.96331 8.13388C7.62182 8.13388 8.20752 8.52817 8.42083 9.11512C8.53728 9.43555 8.90741 9.60637 9.24754 9.49667C9.58767 9.38697 9.769 9.03829 9.65255 8.71786C9.259 7.63492 8.17834 6.9074 6.96331 6.9074C5.74756 6.9074 4.6664 7.63582 4.27341 8.71961C4.15719 9.04011 4.33877 9.38868 4.67898 9.49816Z" fill="#4D4BA6"/>
<path fill-rule="evenodd" clip-rule="evenodd" d="M12.7532 9.49816C13.0934 9.60764 13.4634 9.43658 13.5796 9.11608C13.7926 8.52867 14.3786 8.13388 15.0375 8.13388C15.696 8.13388 16.2817 8.52817 16.495 9.11512C16.6115 9.43555 16.9816 9.60637 17.3218 9.49667C17.6619 9.38697 17.8432 9.03829 17.7268 8.71786C17.3332 7.63492 16.2526 6.9074 15.0375 6.9074C13.8218 6.9074 12.7406 7.63582 12.3476 8.71961C12.2314 9.04011 12.413 9.38868 12.7532 9.49816Z" fill="#4D4BA6"/>
<path fill-rule="evenodd" clip-rule="evenodd" d="M6.54925 14.7985C7.48558 16.4162 9.17366 17.4062 10.9955 17.4062C12.8218 17.4062 14.5134 16.4113 15.4482 14.7873C15.6313 14.4691 15.5306 14.0574 15.2232 13.8678C14.9158 13.6783 14.5182 13.7825 14.335 14.1007C13.6339 15.3187 12.3652 16.0649 10.9955 16.0649C9.62911 16.0649 8.36305 15.3224 7.6608 14.1091C7.4769 13.7914 7.07899 13.6882 6.77204 13.8785C6.46509 14.0689 6.36534 14.4808 6.54925 14.7985Z" fill="#4D4BA6"/>
</svg>
