<svg width="20" height="22" viewBox="0 0 20 22" fill="none" xmlns="http://www.w3.org/2000/svg">
<path d="M19.2886 5.5C18.033 5.5 16.8746 5.08406 15.9443 4.38238C14.8774 3.57801 14.1108 2.39809 13.8401 1.03812C13.7731 0.702109 13.737 0.355352 13.7336 0H10.147V9.80031L10.1427 15.1684C10.1427 16.6036 9.20809 17.8204 7.91258 18.2484C7.5366 18.3726 7.13055 18.4314 6.70773 18.4082C6.16805 18.3786 5.66231 18.2157 5.22273 17.9528C4.28731 17.3933 3.65309 16.3784 3.6359 15.2174C3.60883 13.4028 5.07578 11.9234 6.88906 11.9234C7.24699 11.9234 7.59074 11.9818 7.91258 12.088V9.4093V8.44637C7.57313 8.39609 7.22766 8.36988 6.87832 8.36988C4.89359 8.36988 3.03734 9.19488 1.71047 10.6812C0.707579 11.8044 0.106017 13.2374 0.013204 14.74C-0.108398 16.714 0.613907 18.5904 2.01469 19.9749C2.22051 20.1781 2.43664 20.3668 2.66266 20.5408C3.86363 21.465 5.33188 21.9661 6.87832 21.9661C7.22766 21.9661 7.57313 21.9403 7.91258 21.89C9.35719 21.676 10.6901 21.0147 11.742 19.9749C13.0345 18.6974 13.7486 17.0014 13.7563 15.1963L13.7379 7.18008C14.3545 7.65574 15.0286 8.04934 15.7522 8.35484C16.8776 8.82965 18.0708 9.07027 19.2989 9.06984V6.46551V5.49914C19.2997 5.5 19.2894 5.5 19.2886 5.5Z" fill="#858585"/>
</svg>
