<svg width="310" height="28" viewBox="0 0 310 28" fill="none" xmlns="http://www.w3.org/2000/svg">
<rect x="128" width="92.3392" height="27.8327" rx="13.9164" fill="white"/>
<path fill-rule="evenodd" clip-rule="evenodd" d="M140.442 20.273C136.94 20.273 134.082 17.4155 134.082 13.9134C134.082 10.4113 136.94 7.55384 140.442 7.55384C143.944 7.55384 146.802 10.4113 146.802 13.9134C146.802 17.4155 143.944 20.273 140.442 20.273ZM133.238 13.9134C133.238 17.8817 136.474 21.1172 140.442 21.1172C144.41 21.1172 147.646 17.8817 147.646 13.9134C147.646 9.94509 144.41 6.70965 140.442 6.70965C136.474 6.70965 133.238 9.94509 133.238 13.9134Z" fill="#4D4BA6"/>
<path fill-rule="evenodd" clip-rule="evenodd" d="M136.304 12.7752C136.527 12.8469 136.769 12.7349 136.845 12.525C136.985 12.1403 137.369 11.8818 137.8 11.8818C138.231 11.8818 138.615 12.14 138.755 12.5244C138.831 12.7342 139.073 12.8461 139.296 12.7742C139.519 12.7024 139.638 12.474 139.561 12.2642C139.304 11.555 138.596 11.0785 137.8 11.0785C137.004 11.0785 136.296 11.5556 136.039 12.2653C135.963 12.4752 136.081 12.7035 136.304 12.7752Z" fill="#4D4BA6"/>
<path fill-rule="evenodd" clip-rule="evenodd" d="M141.589 12.7752C141.812 12.8469 142.055 12.7349 142.131 12.525C142.27 12.1403 142.654 11.8818 143.085 11.8818C143.517 11.8818 143.9 12.14 144.04 12.5244C144.116 12.7342 144.359 12.8461 144.581 12.7742C144.804 12.7024 144.923 12.474 144.847 12.2642C144.589 11.555 143.881 11.0785 143.085 11.0785C142.289 11.0785 141.581 11.5556 141.324 12.2653C141.248 12.4752 141.367 12.7035 141.589 12.7752Z" fill="#4D4BA6"/>
<path fill-rule="evenodd" clip-rule="evenodd" d="M137.529 16.2375C138.142 17.2969 139.248 17.9453 140.441 17.9453C141.637 17.9453 142.745 17.2937 143.357 16.2302C143.477 16.0218 143.411 15.7522 143.21 15.628C143.008 15.5039 142.748 15.5722 142.628 15.7805C142.169 16.5782 141.338 17.0669 140.441 17.0669C139.546 17.0669 138.717 16.5806 138.257 15.7861C138.137 15.578 137.876 15.5104 137.675 15.635C137.474 15.7597 137.409 16.0294 137.529 16.2375Z" fill="#4D4BA6"/>
<path d="M150.829 11.1987H152.096L153.793 15.3401H153.86L155.557 11.1987H156.824V16.9141H155.83V12.9875H155.777L154.198 16.8973H153.455L151.876 12.9792H151.823V16.9141H150.829V11.1987ZM159.776 16.9978C159.358 16.9978 158.995 16.9057 158.688 16.7215C158.381 16.5373 158.143 16.2796 157.974 15.9485C157.806 15.6173 157.722 15.2303 157.722 14.7875C157.722 14.3447 157.806 13.9568 157.974 13.6238C158.143 13.2908 158.381 13.0322 158.688 12.848C158.995 12.6638 159.358 12.5717 159.776 12.5717C160.195 12.5717 160.558 12.6638 160.865 12.848C161.172 13.0322 161.409 13.2908 161.576 13.6238C161.746 13.9568 161.83 14.3447 161.83 14.7875C161.83 15.2303 161.746 15.6173 161.576 15.9485C161.409 16.2796 161.172 16.5373 160.865 16.7215C160.558 16.9057 160.195 16.9978 159.776 16.9978ZM159.782 16.1885C160.009 16.1885 160.199 16.1262 160.351 16.0015C160.504 15.875 160.617 15.7057 160.692 15.4936C160.768 15.2815 160.806 15.0452 160.806 14.7847C160.806 14.5224 160.768 14.2852 160.692 14.0731C160.617 13.8592 160.504 13.6889 160.351 13.5624C160.199 13.4359 160.009 13.3726 159.782 13.3726C159.549 13.3726 159.356 13.4359 159.202 13.5624C159.049 13.6889 158.935 13.8592 158.858 14.0731C158.784 14.2852 158.747 14.5224 158.747 14.7847C158.747 15.0452 158.784 15.2815 158.858 15.4936C158.935 15.7057 159.049 15.875 159.202 16.0015C159.356 16.1262 159.549 16.1885 159.782 16.1885ZM164.558 16.9978C164.139 16.9978 163.776 16.9057 163.469 16.7215C163.162 16.5373 162.924 16.2796 162.755 15.9485C162.587 15.6173 162.504 15.2303 162.504 14.7875C162.504 14.3447 162.587 13.9568 162.755 13.6238C162.924 13.2908 163.162 13.0322 163.469 12.848C163.776 12.6638 164.139 12.5717 164.558 12.5717C164.976 12.5717 165.339 12.6638 165.646 12.848C165.953 13.0322 166.19 13.2908 166.358 13.6238C166.527 13.9568 166.612 14.3447 166.612 14.7875C166.612 15.2303 166.527 15.6173 166.358 15.9485C166.19 16.2796 165.953 16.5373 165.646 16.7215C165.339 16.9057 164.976 16.9978 164.558 16.9978ZM164.563 16.1885C164.79 16.1885 164.98 16.1262 165.132 16.0015C165.285 15.875 165.399 15.7057 165.473 15.4936C165.549 15.2815 165.587 15.0452 165.587 14.7847C165.587 14.5224 165.549 14.2852 165.473 14.0731C165.399 13.8592 165.285 13.6889 165.132 13.5624C164.98 13.4359 164.79 13.3726 164.563 13.3726C164.331 13.3726 164.137 13.4359 163.983 13.5624C163.83 13.6889 163.716 13.8592 163.639 14.0731C163.565 14.2852 163.528 14.5224 163.528 14.7847C163.528 15.0452 163.565 15.2815 163.639 15.4936C163.716 15.7057 163.83 15.875 163.983 16.0015C164.137 16.1262 164.331 16.1885 164.563 16.1885ZM169.06 16.9894C168.723 16.9894 168.422 16.9029 168.156 16.7299C167.889 16.5569 167.679 16.3057 167.525 15.9764C167.37 15.6471 167.293 15.2471 167.293 14.7764C167.293 14.3001 167.371 13.8982 167.528 13.5708C167.686 13.2415 167.899 12.9931 168.167 12.8257C168.435 12.6564 168.733 12.5717 169.062 12.5717C169.314 12.5717 169.52 12.6145 169.682 12.7001C169.844 12.7838 169.972 12.8852 170.067 13.0043C170.162 13.1215 170.236 13.2322 170.288 13.3364H170.329V11.1987H171.343V16.9141H170.349V16.2387H170.288C170.236 16.3429 170.16 16.4536 170.062 16.5708C169.963 16.6862 169.833 16.7848 169.671 16.8666C169.509 16.9485 169.305 16.9894 169.06 16.9894ZM169.342 16.1606C169.556 16.1606 169.738 16.1029 169.889 15.9875C170.039 15.8703 170.154 15.7075 170.232 15.4992C170.31 15.2908 170.349 15.048 170.349 14.7708C170.349 14.4936 170.31 14.2526 170.232 14.048C170.156 13.8433 170.042 13.6843 169.891 13.5708C169.743 13.4573 169.559 13.4005 169.342 13.4005C169.116 13.4005 168.929 13.4592 168.778 13.5764C168.627 13.6936 168.514 13.8554 168.437 14.0619C168.361 14.2685 168.323 14.5047 168.323 14.7708C168.323 15.0387 168.361 15.2778 168.437 15.488C168.516 15.6964 168.63 15.861 168.781 15.982C168.933 16.101 169.12 16.1606 169.342 16.1606ZM174.368 16.9141V12.6275H175.348V13.3419H175.393C175.471 13.0945 175.605 12.9038 175.794 12.7698C175.986 12.634 176.205 12.5661 176.45 12.5661C176.506 12.5661 176.568 12.5689 176.637 12.5745C176.708 12.5782 176.767 12.5847 176.813 12.594V13.5233C176.77 13.5085 176.702 13.4954 176.609 13.4843C176.518 13.4712 176.43 13.4647 176.344 13.4647C176.16 13.4647 175.994 13.5047 175.847 13.5847C175.702 13.6629 175.588 13.7717 175.504 13.9113C175.42 14.0508 175.379 14.2117 175.379 14.394V16.9141H174.368ZM179.205 16.9978C178.776 16.9978 178.404 16.9085 178.092 16.7299C177.781 16.5494 177.542 16.2945 177.375 15.9652C177.207 15.6341 177.123 15.2443 177.123 14.7959C177.123 14.355 177.207 13.968 177.375 13.635C177.544 13.3001 177.78 13.0396 178.083 12.8536C178.387 12.6657 178.743 12.5717 179.152 12.5717C179.417 12.5717 179.666 12.6145 179.9 12.7001C180.137 12.7838 180.345 12.914 180.525 13.0908C180.708 13.2675 180.851 13.4926 180.955 13.7661C181.059 14.0378 181.111 14.3615 181.111 14.7373V15.0471H177.598V14.3661H180.143C180.141 14.1726 180.099 14.0006 180.017 13.8499C179.936 13.6973 179.821 13.5773 179.674 13.4899C179.529 13.4024 179.36 13.3587 179.166 13.3587C178.96 13.3587 178.778 13.4089 178.622 13.5094C178.466 13.608 178.344 13.7382 178.257 13.9001C178.171 14.0601 178.127 14.2359 178.125 14.4275V15.022C178.125 15.2713 178.171 15.4852 178.262 15.6638C178.353 15.8406 178.481 15.9764 178.644 16.0713C178.808 16.1643 179 16.2108 179.219 16.2108C179.366 16.2108 179.499 16.1903 179.618 16.1494C179.737 16.1066 179.841 16.0443 179.928 15.9624C180.016 15.8806 180.082 15.7792 180.126 15.6582L181.07 15.7643C181.01 16.0136 180.897 16.2313 180.729 16.4173C180.564 16.6015 180.351 16.7448 180.093 16.8471C179.834 16.9476 179.538 16.9978 179.205 16.9978ZM183.83 18.6108C183.467 18.6108 183.156 18.5615 182.895 18.4629C182.635 18.3662 182.426 18.2359 182.267 18.0722C182.109 17.9085 182 17.7271 181.938 17.528L182.848 17.3076C182.889 17.3913 182.948 17.4741 183.027 17.5559C183.105 17.6396 183.21 17.7085 183.342 17.7624C183.476 17.8183 183.644 17.8462 183.847 17.8462C184.134 17.8462 184.371 17.7764 184.559 17.6369C184.747 17.4992 184.841 17.2722 184.841 16.9559V16.1438H184.79C184.738 16.248 184.662 16.355 184.561 16.4648C184.463 16.5745 184.332 16.6666 184.168 16.741C184.006 16.8155 183.802 16.8527 183.557 16.8527C183.227 16.8527 182.929 16.7755 182.661 16.621C182.395 16.4648 182.183 16.2322 182.025 15.9234C181.868 15.6127 181.79 15.2238 181.79 14.7568C181.79 14.2861 181.868 13.8889 182.025 13.5652C182.183 13.2396 182.396 12.9931 182.664 12.8257C182.932 12.6564 183.23 12.5717 183.56 12.5717C183.811 12.5717 184.017 12.6145 184.179 12.7001C184.343 12.7838 184.473 12.8852 184.57 13.0043C184.667 13.1215 184.74 13.2322 184.79 13.3364H184.846V12.6275H185.842V16.9838C185.842 17.3503 185.755 17.6536 185.58 17.8936C185.405 18.1336 185.166 18.3131 184.863 18.4322C184.56 18.5513 184.215 18.6108 183.83 18.6108ZM183.839 16.0601C184.053 16.0601 184.235 16.008 184.386 15.9038C184.536 15.7996 184.651 15.6499 184.729 15.4545C184.807 15.2592 184.846 15.0247 184.846 14.7513C184.846 14.4815 184.807 14.2452 184.729 14.0424C184.653 13.8396 184.539 13.6824 184.388 13.5708C184.24 13.4573 184.056 13.4005 183.839 13.4005C183.614 13.4005 183.426 13.4592 183.275 13.5764C183.124 13.6936 183.011 13.8545 182.934 14.0592C182.858 14.262 182.82 14.4927 182.82 14.7513C182.82 15.0136 182.858 15.2434 182.934 15.4406C183.013 15.6359 183.127 15.7885 183.278 15.8982C183.43 16.0061 183.617 16.0601 183.839 16.0601ZM189.61 15.1113V12.6275H190.62V16.9141H189.641V16.1522H189.596C189.499 16.3922 189.34 16.5885 189.119 16.741C188.899 16.8936 188.628 16.9699 188.307 16.9699C188.026 16.9699 187.777 16.9076 187.561 16.7829C187.348 16.6564 187.18 16.4731 187.059 16.2331C186.938 15.9913 186.878 15.6992 186.878 15.3568V12.6275H187.888V15.2006C187.888 15.4722 187.962 15.688 188.111 15.848C188.26 16.008 188.455 16.088 188.697 16.088C188.846 16.088 188.99 16.0517 189.13 15.9792C189.269 15.9066 189.384 15.7987 189.473 15.6554C189.564 15.5103 189.61 15.3289 189.61 15.1113ZM192.669 11.1987V16.9141H191.659V11.1987H192.669ZM194.942 17.0006C194.67 17.0006 194.425 16.9522 194.208 16.8555C193.992 16.7569 193.821 16.6117 193.694 16.4201C193.569 16.2285 193.507 15.9922 193.507 15.7113C193.507 15.4694 193.552 15.2694 193.641 15.1113C193.73 14.9531 193.852 14.8266 194.007 14.7317C194.161 14.6368 194.335 14.5652 194.528 14.5168C194.724 14.4666 194.926 14.4303 195.134 14.408C195.385 14.382 195.589 14.3587 195.745 14.3382C195.902 14.3159 196.015 14.2824 196.086 14.2378C196.158 14.1913 196.195 14.1196 196.195 14.0229V14.0061C196.195 13.7959 196.132 13.6331 196.008 13.5178C195.883 13.4024 195.703 13.3447 195.469 13.3447C195.222 13.3447 195.025 13.3987 194.88 13.5066C194.737 13.6145 194.64 13.7419 194.59 13.8889L193.647 13.755C193.721 13.4945 193.844 13.2768 194.015 13.1019C194.186 12.9252 194.395 12.7931 194.643 12.7057C194.89 12.6164 195.164 12.5717 195.463 12.5717C195.67 12.5717 195.875 12.5959 196.08 12.6443C196.285 12.6926 196.472 12.7726 196.641 12.8843C196.81 12.994 196.946 13.1438 197.049 13.3336C197.153 13.5233 197.205 13.7606 197.205 14.0452V16.9141H196.234V16.3252H196.2C196.139 16.4443 196.052 16.5559 195.941 16.6601C195.831 16.7624 195.692 16.8452 195.525 16.9085C195.359 16.9699 195.165 17.0006 194.942 17.0006ZM195.204 16.2582C195.407 16.2582 195.582 16.2182 195.731 16.1382C195.88 16.0564 195.995 15.9485 196.075 15.8145C196.156 15.6806 196.197 15.5345 196.197 15.3764V14.8713C196.166 14.8973 196.112 14.9215 196.035 14.9438C195.961 14.9661 195.877 14.9857 195.784 15.0024C195.691 15.0192 195.599 15.034 195.508 15.0471C195.417 15.0601 195.338 15.0713 195.271 15.0806C195.12 15.101 194.985 15.1345 194.866 15.181C194.747 15.2275 194.653 15.2927 194.584 15.3764C194.515 15.4582 194.481 15.5643 194.481 15.6945C194.481 15.8806 194.549 16.021 194.685 16.1159C194.821 16.2108 194.994 16.2582 195.204 16.2582ZM200.361 12.6275V13.4089H197.897V12.6275H200.361ZM198.505 11.6005H199.515V15.6248C199.515 15.7606 199.536 15.8648 199.577 15.9373C199.62 16.008 199.675 16.0564 199.744 16.0824C199.813 16.1085 199.889 16.1215 199.973 16.1215C200.036 16.1215 200.094 16.1168 200.146 16.1075C200.2 16.0982 200.241 16.0899 200.269 16.0824L200.439 16.8722C200.385 16.8908 200.308 16.9113 200.208 16.9336C200.109 16.9559 199.988 16.9689 199.845 16.9727C199.592 16.9801 199.364 16.942 199.161 16.8582C198.958 16.7727 198.797 16.6406 198.678 16.462C198.561 16.2834 198.503 16.0601 198.505 15.7922V11.6005ZM201.206 16.9141V12.6275H202.216V16.9141H201.206ZM201.714 12.0191C201.554 12.0191 201.416 11.9661 201.301 11.8601C201.186 11.7522 201.128 11.6229 201.128 11.4722C201.128 11.3196 201.186 11.1903 201.301 11.0843C201.416 10.9763 201.554 10.9224 201.714 10.9224C201.876 10.9224 202.013 10.9763 202.127 11.0843C202.242 11.1903 202.3 11.3196 202.3 11.4722C202.3 11.6229 202.242 11.7522 202.127 11.8601C202.013 11.9661 201.876 12.0191 201.714 12.0191ZM205.125 16.9978C204.706 16.9978 204.343 16.9057 204.036 16.7215C203.729 16.5373 203.491 16.2796 203.322 15.9485C203.155 15.6173 203.071 15.2303 203.071 14.7875C203.071 14.3447 203.155 13.9568 203.322 13.6238C203.491 13.2908 203.729 13.0322 204.036 12.848C204.343 12.6638 204.706 12.5717 205.125 12.5717C205.543 12.5717 205.906 12.6638 206.213 12.848C206.52 13.0322 206.757 13.2908 206.925 13.6238C207.094 13.9568 207.179 14.3447 207.179 14.7875C207.179 15.2303 207.094 15.6173 206.925 15.9485C206.757 16.2796 206.52 16.5373 206.213 16.7215C205.906 16.9057 205.543 16.9978 205.125 16.9978ZM205.13 16.1885C205.357 16.1885 205.547 16.1262 205.7 16.0015C205.852 15.875 205.966 15.7057 206.04 15.4936C206.116 15.2815 206.155 15.0452 206.155 14.7847C206.155 14.5224 206.116 14.2852 206.04 14.0731C205.966 13.8592 205.852 13.6889 205.7 13.5624C205.547 13.4359 205.357 13.3726 205.13 13.3726C204.898 13.3726 204.704 13.4359 204.55 13.5624C204.397 13.6889 204.283 13.8592 204.207 14.0731C204.132 14.2852 204.095 14.5224 204.095 14.7847C204.095 15.0452 204.132 15.2815 204.207 15.4936C204.283 15.7057 204.397 15.875 204.55 16.0015C204.704 16.1262 204.898 16.1885 205.13 16.1885ZM209.046 14.4024V16.9141H208.036V12.6275H209.002V13.3559H209.052C209.151 13.1159 209.308 12.9252 209.524 12.7838C209.741 12.6424 210.01 12.5717 210.33 12.5717C210.626 12.5717 210.884 12.635 211.103 12.7615C211.325 12.888 211.496 13.0712 211.617 13.3112C211.74 13.5512 211.8 13.8424 211.798 14.1847V16.9141H210.788V14.341C210.788 14.0545 210.713 13.8303 210.565 13.6685C210.418 13.5066 210.214 13.4257 209.953 13.4257C209.777 13.4257 209.62 13.4647 209.482 13.5429C209.346 13.6192 209.239 13.7299 209.161 13.875C209.085 14.0201 209.046 14.1959 209.046 14.4024Z" fill="#4D4BA6"/>
<rect x="233" width="76.6219" height="27.8327" rx="13.9164" fill="white"/>
<g clip-path="url(#clip0_1330_7183)">
<path d="M251.779 11.2796C252.066 9.86255 251.061 8.53012 249.658 8.37938C248.925 6.64876 246.559 6.35822 245.443 7.91628C244.327 6.35882 241.96 6.64794 241.227 8.37938C239.823 8.53023 238.819 9.86352 239.106 11.2796C238.06 12.1557 237.952 13.717 238.831 14.7295C237.375 16.6906 238.759 19.549 241.271 19.549C242.073 21.2225 244.364 21.421 245.442 19.9153C246.522 21.4222 248.812 21.2209 249.614 19.549C252.12 19.5545 253.511 16.6911 252.054 14.7295C252.934 13.7158 252.824 12.1546 251.779 11.2796ZM243.408 20.0114C242.139 20.0114 241.406 18.5201 242.233 17.5193C242.393 17.326 242.366 17.0397 242.173 16.8799C241.979 16.7201 241.693 16.7473 241.533 16.9407C241.151 17.4027 240.948 18.0011 240.98 18.6141C239.258 18.4311 238.491 16.3719 239.629 15.1025C239.642 15.1166 240.069 14.5062 240.98 14.4092C240.965 14.7034 241.003 15.0008 241.098 15.2892C241.16 15.4808 241.338 15.6024 241.529 15.6024C241.837 15.6024 242.057 15.3011 241.961 15.0069C241.7 14.2088 242.137 13.3472 242.935 13.0864C243.174 13.0084 243.304 12.752 243.226 12.5135C243.148 12.2751 242.891 12.1449 242.653 12.2229C242.549 12.2569 242.449 12.2979 242.352 12.3445C242.171 11.8811 242.296 11.3337 242.699 10.9993C242.892 10.8393 242.919 10.553 242.759 10.3598C242.599 10.1667 242.313 10.1399 242.119 10.2999C241.333 10.9517 241.151 12.0475 241.608 12.8993C241.302 13.2378 241.231 13.4887 241.205 13.4887C240.538 13.4887 239.922 13.7057 239.421 14.0727C238.864 13.3748 239.023 12.3231 239.809 11.8325C239.99 11.7195 240.068 11.4955 239.997 11.2943C239.663 10.36 240.292 9.261 241.497 9.261C241.702 9.261 241.883 9.12279 241.936 8.92311C242.112 8.25675 242.718 7.79137 243.408 7.79137C244.247 7.79137 244.931 8.47448 244.931 9.31417V18.4886C244.931 19.3283 244.247 20.0114 243.408 20.0114ZM251.348 14.0727C250.807 13.6754 250.15 13.4781 249.556 13.4892C249.453 13.2734 249.326 13.0809 249.161 12.8993C249.618 12.0482 249.437 10.9523 248.65 10.2999C248.457 10.1398 248.171 10.1667 248.011 10.3598C247.851 10.553 247.877 10.8393 248.071 10.9993C248.474 11.3337 248.599 11.8811 248.418 12.3445C248.321 12.2979 248.221 12.2569 248.117 12.2229C247.878 12.1449 247.622 12.2751 247.544 12.5135C247.466 12.7519 247.596 13.0084 247.834 13.0864C248.632 13.3472 249.07 14.2088 248.809 15.0069C248.731 15.2453 248.861 15.5018 249.099 15.5798C249.336 15.6573 249.594 15.5289 249.672 15.2892C249.766 15.0008 249.805 14.7034 249.79 14.4091C250.857 14.5228 251.679 15.4303 251.679 16.5116C251.679 17.6016 250.85 18.5014 249.789 18.614C249.822 18.0034 249.62 17.4044 249.237 16.9406C249.077 16.7472 248.79 16.7201 248.597 16.8798C248.404 17.0396 248.376 17.3259 248.536 17.5193C249.362 18.5182 248.632 20.0113 247.362 20.0113C246.522 20.0113 245.839 19.3282 245.839 18.4885V9.31417C245.839 8.47451 246.522 7.79137 247.362 7.79137C248.052 7.79137 248.657 8.25678 248.834 8.92311C248.888 9.12767 249.075 9.26818 249.288 9.26078C250.352 9.22166 251.136 10.2789 250.773 11.2944C250.701 11.4955 250.779 11.7195 250.96 11.8325C251.748 12.3236 251.905 13.3757 251.348 14.0727Z" fill="#4D4BA6"/>
</g>
<path d="M255.829 16.9141V11.1987H258.017C258.43 11.1987 258.774 11.2638 259.047 11.394C259.322 11.5224 259.528 11.6982 259.664 11.9215C259.801 12.1447 259.87 12.3978 259.87 12.6805C259.87 12.9131 259.826 13.1122 259.736 13.2778C259.647 13.4415 259.527 13.5745 259.376 13.6768C259.226 13.7792 259.057 13.8526 258.871 13.8973V13.9531C259.074 13.9643 259.268 14.0266 259.454 14.1401C259.642 14.2517 259.796 14.4099 259.915 14.6145C260.034 14.8192 260.094 15.0666 260.094 15.3568C260.094 15.6527 260.022 15.9187 259.879 16.155C259.735 16.3894 259.52 16.5745 259.231 16.7103C258.943 16.8462 258.58 16.9141 258.143 16.9141H255.829ZM256.865 16.0489H257.978C258.354 16.0489 258.625 15.9773 258.79 15.8341C258.958 15.6889 259.041 15.5029 259.041 15.2759C259.041 15.1066 259 14.954 258.916 14.8182C258.832 14.6806 258.713 14.5727 258.559 14.4945C258.404 14.4145 258.22 14.3745 258.006 14.3745H256.865V16.0489ZM256.865 13.6294H257.889C258.068 13.6294 258.228 13.5968 258.372 13.5317C258.515 13.4647 258.628 13.3708 258.709 13.2499C258.793 13.1271 258.835 12.9819 258.835 12.8145C258.835 12.5931 258.757 12.4108 258.601 12.2675C258.446 12.1243 258.216 12.0526 257.911 12.0526H256.865V13.6294ZM260.95 16.9141V12.6275H261.929V13.3419H261.974C262.052 13.0945 262.186 12.9038 262.376 12.7698C262.567 12.634 262.786 12.5661 263.031 12.5661C263.087 12.5661 263.15 12.5689 263.218 12.5745C263.289 12.5782 263.348 12.5847 263.394 12.594V13.5233C263.351 13.5085 263.284 13.4954 263.191 13.4843C263.099 13.4712 263.011 13.4647 262.925 13.4647C262.741 13.4647 262.576 13.5047 262.429 13.5847C262.284 13.6629 262.169 13.7717 262.085 13.9113C262.002 14.0508 261.96 14.2117 261.96 14.394V16.9141H260.95ZM265.222 17.0006C264.951 17.0006 264.706 16.9522 264.488 16.8555C264.272 16.7569 264.101 16.6117 263.975 16.4201C263.85 16.2285 263.788 15.9922 263.788 15.7113C263.788 15.4694 263.832 15.2694 263.922 15.1113C264.011 14.9531 264.133 14.8266 264.287 14.7317C264.442 14.6368 264.616 14.5652 264.809 14.5168C265.005 14.4666 265.206 14.4303 265.415 14.408C265.666 14.382 265.87 14.3587 266.026 14.3382C266.182 14.3159 266.296 14.2824 266.366 14.2378C266.439 14.1913 266.475 14.1196 266.475 14.0229V14.0061C266.475 13.7959 266.413 13.6331 266.288 13.5178C266.164 13.4024 265.984 13.3447 265.75 13.3447C265.502 13.3447 265.306 13.3987 265.161 13.5066C265.018 13.6145 264.921 13.7419 264.871 13.8889L263.927 13.755C264.002 13.4945 264.125 13.2768 264.296 13.1019C264.467 12.9252 264.676 12.7931 264.924 12.7057C265.171 12.6164 265.445 12.5717 265.744 12.5717C265.951 12.5717 266.156 12.5959 266.361 12.6443C266.565 12.6926 266.752 12.7726 266.922 12.8843C267.091 12.994 267.227 13.1438 267.329 13.3336C267.433 13.5233 267.485 13.7606 267.485 14.0452V16.9141H266.514V16.3252H266.481C266.419 16.4443 266.333 16.5559 266.221 16.6601C266.112 16.7624 265.973 16.8452 265.805 16.9085C265.64 16.9699 265.445 17.0006 265.222 17.0006ZM265.485 16.2582C265.687 16.2582 265.863 16.2182 266.012 16.1382C266.161 16.0564 266.275 15.9485 266.355 15.8145C266.437 15.6806 266.478 15.5345 266.478 15.3764V14.8713C266.446 14.8973 266.392 14.9215 266.316 14.9438C266.242 14.9661 266.158 14.9857 266.065 15.0024C265.972 15.0192 265.88 15.034 265.789 15.0471C265.698 15.0601 265.618 15.0713 265.552 15.0806C265.401 15.101 265.266 15.1345 265.147 15.181C265.028 15.2275 264.934 15.2927 264.865 15.3764C264.796 15.4582 264.762 15.5643 264.762 15.6945C264.762 15.8806 264.83 16.021 264.965 16.1159C265.101 16.2108 265.274 16.2582 265.485 16.2582ZM268.501 16.9141V12.6275H269.512V16.9141H268.501ZM269.009 12.0191C268.849 12.0191 268.712 11.9661 268.596 11.8601C268.481 11.7522 268.423 11.6229 268.423 11.4722C268.423 11.3196 268.481 11.1903 268.596 11.0843C268.712 10.9763 268.849 10.9224 269.009 10.9224C269.171 10.9224 269.309 10.9763 269.422 11.0843C269.538 11.1903 269.595 11.3196 269.595 11.4722C269.595 11.6229 269.538 11.7522 269.422 11.8601C269.309 11.9661 269.171 12.0191 269.009 12.0191ZM271.561 14.4024V16.9141H270.55V12.6275H271.516V13.3559H271.566C271.665 13.1159 271.822 12.9252 272.038 12.7838C272.256 12.6424 272.524 12.5717 272.844 12.5717C273.14 12.5717 273.398 12.635 273.617 12.7615C273.839 12.888 274.01 13.0712 274.131 13.3112C274.254 13.5512 274.314 13.8424 274.312 14.1847V16.9141H273.302V14.341C273.302 14.0545 273.228 13.8303 273.079 13.6685C272.932 13.5066 272.728 13.4257 272.468 13.4257C272.291 13.4257 272.134 13.4647 271.996 13.5429C271.86 13.6192 271.753 13.7299 271.675 13.875C271.599 14.0201 271.561 14.1959 271.561 14.4024ZM277.333 16.9141V11.1987H278.369V13.6182H281.017V11.1987H282.055V16.9141H281.017V14.4861H278.369V16.9141H277.333ZM285.034 16.9978C284.604 16.9978 284.233 16.9085 283.921 16.7299C283.61 16.5494 283.371 16.2945 283.203 15.9652C283.036 15.6341 282.952 15.2443 282.952 14.7959C282.952 14.355 283.036 13.968 283.203 13.635C283.373 13.3001 283.609 13.0396 283.912 12.8536C284.216 12.6657 284.572 12.5717 284.981 12.5717C285.245 12.5717 285.495 12.6145 285.729 12.7001C285.965 12.7838 286.174 12.914 286.354 13.0908C286.537 13.2675 286.68 13.4926 286.784 13.7661C286.888 14.0378 286.94 14.3615 286.94 14.7373V15.0471H283.427V14.3661H285.972C285.97 14.1726 285.928 14.0006 285.846 13.8499C285.764 13.6973 285.65 13.5773 285.503 13.4899C285.358 13.4024 285.189 13.3587 284.995 13.3587C284.789 13.3587 284.607 13.4089 284.451 13.5094C284.295 13.608 284.173 13.7382 284.085 13.9001C284 14.0601 283.956 14.2359 283.954 14.4275V15.022C283.954 15.2713 284 15.4852 284.091 15.6638C284.182 15.8406 284.31 15.9764 284.473 16.0713C284.637 16.1643 284.829 16.2108 285.048 16.2108C285.195 16.2108 285.328 16.1903 285.447 16.1494C285.566 16.1066 285.67 16.0443 285.757 15.9624C285.844 15.8806 285.91 15.7792 285.955 15.6582L286.898 15.7643C286.839 16.0136 286.725 16.2313 286.558 16.4173C286.392 16.6015 286.18 16.7448 285.922 16.8471C285.663 16.9476 285.367 16.9978 285.034 16.9978ZM289.028 17.0006C288.757 17.0006 288.512 16.9522 288.294 16.8555C288.079 16.7569 287.907 16.6117 287.781 16.4201C287.656 16.2285 287.594 15.9922 287.594 15.7113C287.594 15.4694 287.639 15.2694 287.728 15.1113C287.817 14.9531 287.939 14.8266 288.094 14.7317C288.248 14.6368 288.422 14.5652 288.615 14.5168C288.811 14.4666 289.013 14.4303 289.221 14.408C289.472 14.382 289.676 14.3587 289.832 14.3382C289.988 14.3159 290.102 14.2824 290.173 14.2378C290.245 14.1913 290.281 14.1196 290.281 14.0229V14.0061C290.281 13.7959 290.219 13.6331 290.094 13.5178C289.97 13.4024 289.79 13.3447 289.556 13.3447C289.308 13.3447 289.112 13.3987 288.967 13.5066C288.824 13.6145 288.727 13.7419 288.677 13.8889L287.734 13.755C287.808 13.4945 287.931 13.2768 288.102 13.1019C288.273 12.9252 288.482 12.7931 288.73 12.7057C288.977 12.6164 289.251 12.5717 289.55 12.5717C289.757 12.5717 289.962 12.5959 290.167 12.6443C290.372 12.6926 290.559 12.7726 290.728 12.8843C290.897 12.994 291.033 13.1438 291.135 13.3336C291.24 13.5233 291.292 13.7606 291.292 14.0452V16.9141H290.321V16.3252H290.287C290.226 16.4443 290.139 16.5559 290.027 16.6601C289.918 16.7624 289.779 16.8452 289.612 16.9085C289.446 16.9699 289.252 17.0006 289.028 17.0006ZM289.291 16.2582C289.494 16.2582 289.669 16.2182 289.818 16.1382C289.967 16.0564 290.081 15.9485 290.161 15.8145C290.243 15.6806 290.284 15.5345 290.284 15.3764V14.8713C290.253 14.8973 290.199 14.9215 290.122 14.9438C290.048 14.9661 289.964 14.9857 289.871 15.0024C289.778 15.0192 289.686 15.034 289.595 15.0471C289.504 15.0601 289.425 15.0713 289.358 15.0806C289.207 15.101 289.072 15.1345 288.953 15.181C288.834 15.2275 288.74 15.2927 288.671 15.3764C288.602 15.4582 288.568 15.5643 288.568 15.6945C288.568 15.8806 288.636 16.021 288.772 16.1159C288.907 16.2108 289.081 16.2582 289.291 16.2582ZM293.318 11.1987V16.9141H292.308V11.1987H293.318ZM296.497 12.6275V13.4089H294.033V12.6275H296.497ZM294.641 11.6005H295.651V15.6248C295.651 15.7606 295.672 15.8648 295.713 15.9373C295.756 16.008 295.811 16.0564 295.88 16.0824C295.949 16.1085 296.025 16.1215 296.109 16.1215C296.172 16.1215 296.23 16.1168 296.282 16.1075C296.336 16.0982 296.377 16.0899 296.405 16.0824L296.575 16.8722C296.521 16.8908 296.444 16.9113 296.344 16.9336C296.245 16.9559 296.124 16.9689 295.981 16.9727C295.728 16.9801 295.5 16.942 295.297 16.8582C295.094 16.7727 294.933 16.6406 294.814 16.462C294.697 16.2834 294.639 16.0601 294.641 15.7922V11.6005ZM298.444 14.4024V16.9141H297.434V11.1987H298.422V13.3559H298.472C298.573 13.114 298.728 12.9233 298.938 12.7838C299.15 12.6424 299.42 12.5717 299.748 12.5717C300.045 12.5717 300.305 12.634 300.526 12.7587C300.748 12.8833 300.919 13.0657 301.04 13.3057C301.162 13.5457 301.224 13.8387 301.224 14.1847V16.9141H300.214V14.341C300.214 14.0526 300.139 13.8285 299.99 13.6685C299.843 13.5066 299.637 13.4257 299.371 13.4257C299.192 13.4257 299.032 13.4647 298.891 13.5429C298.751 13.6192 298.642 13.7299 298.562 13.875C298.483 14.0201 298.444 14.1959 298.444 14.4024Z" fill="#4D4BA6"/>
<rect width="127.703" height="27.8327" rx="13.9164" fill="white"/>
<g clip-path="url(#clip1_1330_7183)">
<path d="M13.586 21.1185V18.5296H15.6965C16.3947 18.5296 16.9628 17.9616 16.9628 17.2633V15.8377L18.8788 14.8955L16.9612 12.0663C16.8908 9.10138 14.4571 6.71094 11.4755 6.71094C8.44986 6.71094 5.98828 9.17252 5.98828 12.1982C5.98828 13.6931 6.60128 15.1253 7.67666 16.1578V21.1185H13.586ZM6.83247 12.1982C6.83247 9.638 8.91535 7.55513 11.4755 7.55513C14.0357 7.55513 16.1186 9.638 16.1186 12.1982V12.3277L17.6357 14.566L16.1186 15.3121V17.2633C16.1186 17.4961 15.9292 17.6854 15.6965 17.6854H12.7418V20.2743H8.52086V15.7849C8.48104 15.7314 6.83247 14.5264 6.83247 12.1982Z" fill="#4D4BA6"/>
<path d="M10.4412 14.3997C10.6846 14.6029 11.4783 15.2776 11.4783 15.2776C11.4783 15.2776 12.272 14.6029 12.5155 14.3996C13.7355 13.3813 14.8551 12.5052 14.8551 11.2425C14.8551 10.1368 14.0534 9.23438 12.9557 9.23438C12.2527 9.23438 11.7746 9.58179 11.4783 9.9137C11.182 9.58182 10.704 9.2344 10.001 9.2344C8.90388 9.2344 8.10156 10.1362 8.10156 11.2426C8.10156 12.5411 9.30997 13.4554 10.4412 14.3997ZM10.001 10.0786C10.7419 10.0786 11.0685 10.7865 11.0896 10.8341C11.4638 10.8366 11.4906 10.8368 11.8648 10.8393L11.8675 10.833C11.8707 10.8254 12.1932 10.0786 12.9557 10.0786C13.5573 10.0786 14.0109 10.5789 14.0109 11.2425C14.0109 12.0517 13.2444 12.6915 11.9745 13.7516C11.8136 13.8859 11.649 14.0233 11.4783 14.1675C11.3076 14.0233 11.1431 13.886 10.9822 13.7516C9.71225 12.6916 8.94575 12.0517 8.94575 11.2425C8.94575 10.579 9.39942 10.0786 10.001 10.0786Z" fill="#4D4BA6"/>
</g>
<path d="M22.8293 11.1987H24.0963L25.7931 15.3401H25.8601L27.5568 11.1987H28.8238V16.9141H27.8303V12.9875H27.7773L26.1977 16.8973H25.4554L23.8759 12.9792H23.8228V16.9141H22.8293V11.1987ZM31.8043 16.9978C31.3745 16.9978 31.0034 16.9085 30.6908 16.7299C30.3801 16.5494 30.141 16.2945 29.9736 15.9652C29.8061 15.6341 29.7224 15.2443 29.7224 14.7959C29.7224 14.355 29.8061 13.968 29.9736 13.635C30.1429 13.3001 30.3792 13.0396 30.6824 12.8536C30.9857 12.6657 31.342 12.5717 31.7513 12.5717C32.0155 12.5717 32.2648 12.6145 32.4992 12.7001C32.7355 12.7838 32.9438 12.914 33.1243 13.0908C33.3066 13.2675 33.4499 13.4926 33.5541 13.7661C33.6583 14.0378 33.7104 14.3615 33.7104 14.7373V15.0471H30.1968V14.3661H32.742C32.7401 14.1726 32.6983 14.0006 32.6164 13.8499C32.5345 13.6973 32.4201 13.5773 32.2731 13.4899C32.128 13.4024 31.9587 13.3587 31.7652 13.3587C31.5587 13.3587 31.3773 13.4089 31.221 13.5094C31.0648 13.608 30.9429 13.7382 30.8555 13.9001C30.7699 14.0601 30.7261 14.2359 30.7243 14.4275V15.022C30.7243 15.2713 30.7699 15.4852 30.861 15.6638C30.9522 15.8406 31.0796 15.9764 31.2434 16.0713C31.4071 16.1643 31.5987 16.2108 31.8182 16.2108C31.9652 16.2108 32.0983 16.1903 32.2173 16.1494C32.3364 16.1066 32.4396 16.0443 32.5271 15.9624C32.6145 15.8806 32.6806 15.7792 32.7252 15.6582L33.6685 15.7643C33.609 16.0136 33.4955 16.2313 33.328 16.4173C33.1624 16.6015 32.9503 16.7448 32.6917 16.8471C32.4331 16.9476 32.1373 16.9978 31.8043 16.9978ZM35.5753 14.4024V16.9141H34.565V12.6275H35.5306V13.3559H35.5808C35.6794 13.1159 35.8366 12.9252 36.0525 12.7838C36.2701 12.6424 36.539 12.5717 36.859 12.5717C37.1548 12.5717 37.4125 12.635 37.632 12.7615C37.8534 12.888 38.0246 13.0712 38.1455 13.3112C38.2683 13.5512 38.3288 13.8424 38.3269 14.1847V16.9141H37.3167V14.341C37.3167 14.0545 37.2422 13.8303 37.0934 13.6685C36.9464 13.5066 36.7427 13.4257 36.4822 13.4257C36.3055 13.4257 36.1483 13.4647 36.0106 13.5429C35.8748 13.6192 35.7678 13.7299 35.6897 13.875C35.6134 14.0201 35.5753 14.1959 35.5753 14.4024ZM41.4944 12.6275V13.4089H39.0302V12.6275H41.4944ZM39.6385 11.6005H40.6488V15.6248C40.6488 15.7606 40.6692 15.8648 40.7102 15.9373C40.753 16.008 40.8088 16.0564 40.8776 16.0824C40.9465 16.1085 41.0227 16.1215 41.1065 16.1215C41.1697 16.1215 41.2274 16.1168 41.2795 16.1075C41.3334 16.0982 41.3744 16.0899 41.4023 16.0824L41.5725 16.8722C41.5185 16.8908 41.4413 16.9113 41.3409 16.9336C41.2423 16.9559 41.1213 16.9689 40.9781 16.9727C40.7251 16.9801 40.4971 16.942 40.2944 16.8582C40.0916 16.7727 39.9306 16.6406 39.8116 16.462C39.6943 16.2834 39.6367 16.0601 39.6385 15.7922V11.6005ZM43.5727 17.0006C43.3011 17.0006 43.0565 16.9522 42.8388 16.8555C42.623 16.7569 42.4518 16.6117 42.3253 16.4201C42.2006 16.2285 42.1383 15.9922 42.1383 15.7113C42.1383 15.4694 42.183 15.2694 42.2723 15.1113C42.3616 14.9531 42.4834 14.8266 42.6379 14.7317C42.7923 14.6368 42.9662 14.5652 43.1597 14.5168C43.3551 14.4666 43.5569 14.4303 43.7653 14.408C44.0165 14.382 44.2202 14.3587 44.3765 14.3382C44.5328 14.3159 44.6462 14.2824 44.7169 14.2378C44.7895 14.1913 44.8258 14.1196 44.8258 14.0229V14.0061C44.8258 13.7959 44.7635 13.6331 44.6388 13.5178C44.5141 13.4024 44.3346 13.3447 44.1002 13.3447C43.8527 13.3447 43.6565 13.3987 43.5114 13.5066C43.3681 13.6145 43.2713 13.7419 43.2211 13.8889L42.2779 13.755C42.3523 13.4945 42.4751 13.2768 42.6462 13.1019C42.8174 12.9252 43.0267 12.7931 43.2741 12.7057C43.5216 12.6164 43.7951 12.5717 44.0946 12.5717C44.3011 12.5717 44.5067 12.5959 44.7114 12.6443C44.916 12.6926 45.103 12.7726 45.2723 12.8843C45.4416 12.994 45.5774 13.1438 45.6797 13.3336C45.7839 13.5233 45.836 13.7606 45.836 14.0452V16.9141H44.8648V16.3252H44.8314C44.77 16.4443 44.6835 16.5559 44.5718 16.6601C44.4621 16.7624 44.3235 16.8452 44.156 16.9085C43.9904 16.9699 43.796 17.0006 43.5727 17.0006ZM43.8351 16.2582C44.0379 16.2582 44.2137 16.2182 44.3625 16.1382C44.5114 16.0564 44.6258 15.9485 44.7058 15.8145C44.7876 15.6806 44.8286 15.5345 44.8286 15.3764V14.8713C44.7969 14.8973 44.743 14.9215 44.6667 14.9438C44.5923 14.9661 44.5086 14.9857 44.4155 15.0024C44.3225 15.0192 44.2304 15.034 44.1393 15.0471C44.0481 15.0601 43.969 15.0713 43.9021 15.0806C43.7514 15.101 43.6165 15.1345 43.4974 15.181C43.3783 15.2275 43.2844 15.2927 43.2155 15.3764C43.1467 15.4582 43.1123 15.5643 43.1123 15.6945C43.1123 15.8806 43.1802 16.021 43.316 16.1159C43.4518 16.2108 43.6248 16.2582 43.8351 16.2582ZM47.8621 11.1987V16.9141H46.8518V11.1987H47.8621ZM51.9302 11.1987V16.9141H50.8949V11.1987H51.9302ZM54.017 11.1987V16.9141H53.0068V11.1987H54.017ZM56.0661 11.1987V16.9141H55.0558V11.1987H56.0661ZM58.1152 14.4024V16.9141H57.1049V12.6275H58.0705V13.3559H58.1208C58.2194 13.1159 58.3766 12.9252 58.5924 12.7838C58.8101 12.6424 59.0789 12.5717 59.3989 12.5717C59.6947 12.5717 59.9524 12.635 60.1719 12.7615C60.3933 12.888 60.5645 13.0712 60.6854 13.3112C60.8082 13.5512 60.8687 13.8424 60.8668 14.1847V16.9141H59.8566V14.341C59.8566 14.0545 59.7822 13.8303 59.6333 13.6685C59.4863 13.5066 59.2826 13.4257 59.0222 13.4257C58.8454 13.4257 58.6882 13.4647 58.5505 13.5429C58.4147 13.6192 58.3077 13.7299 58.2296 13.875C58.1533 14.0201 58.1152 14.1959 58.1152 14.4024ZM63.7915 16.9978C63.3617 16.9978 62.9906 16.9085 62.678 16.7299C62.3673 16.5494 62.1282 16.2945 61.9608 15.9652C61.7933 15.6341 61.7096 15.2443 61.7096 14.7959C61.7096 14.355 61.7933 13.968 61.9608 13.635C62.1301 13.3001 62.3664 13.0396 62.6696 12.8536C62.9729 12.6657 63.3292 12.5717 63.7385 12.5717C64.0027 12.5717 64.252 12.6145 64.4864 12.7001C64.7227 12.7838 64.931 12.914 65.1115 13.0908C65.2938 13.2675 65.4371 13.4926 65.5413 13.7661C65.6455 14.0378 65.6975 14.3615 65.6975 14.7373V15.0471H62.184V14.3661H64.7292C64.7273 14.1726 64.6854 14.0006 64.6036 13.8499C64.5217 13.6973 64.4073 13.5773 64.2603 13.4899C64.1152 13.4024 63.9459 13.3587 63.7524 13.3587C63.5459 13.3587 63.3645 13.4089 63.2082 13.5094C63.052 13.608 62.9301 13.7382 62.8426 13.9001C62.7571 14.0601 62.7133 14.2359 62.7115 14.4275V15.022C62.7115 15.2713 62.7571 15.4852 62.8482 15.6638C62.9394 15.8406 63.0668 15.9764 63.2306 16.0713C63.3943 16.1643 63.5859 16.2108 63.8054 16.2108C63.9524 16.2108 64.0854 16.1903 64.2045 16.1494C64.3236 16.1066 64.4268 16.0443 64.5143 15.9624C64.6017 15.8806 64.6678 15.7792 64.7124 15.6582L65.6557 15.7643C65.5962 16.0136 65.4827 16.2313 65.3152 16.4173C65.1496 16.6015 64.9375 16.7448 64.6789 16.8471C64.4203 16.9476 64.1245 16.9978 63.7915 16.9978ZM69.9401 13.7606L69.0192 13.861C68.9932 13.768 68.9476 13.6806 68.8825 13.5987C68.8192 13.5168 68.7336 13.4508 68.6257 13.4005C68.5178 13.3503 68.3857 13.3252 68.2294 13.3252C68.0192 13.3252 67.8424 13.3708 67.6992 13.4619C67.5578 13.5531 67.488 13.6712 67.4899 13.8164C67.488 13.941 67.5336 14.0424 67.6266 14.1206C67.7215 14.1987 67.8778 14.2629 68.0955 14.3131L68.8266 14.4694C69.2322 14.5568 69.5336 14.6954 69.7308 14.8852C69.9299 15.075 70.0304 15.3234 70.0322 15.6303C70.0304 15.9001 69.9513 16.1382 69.795 16.3448C69.6406 16.5494 69.4257 16.7094 69.1504 16.8248C68.875 16.9401 68.5587 16.9978 68.2015 16.9978C67.6769 16.9978 67.2545 16.888 66.9345 16.6685C66.6145 16.4471 66.4238 16.1392 66.3624 15.7448L67.3476 15.6499C67.3922 15.8434 67.4871 15.9894 67.6322 16.088C67.7773 16.1866 67.9662 16.2359 68.1987 16.2359C68.4387 16.2359 68.6313 16.1866 68.7764 16.088C68.9234 15.9894 68.9969 15.8675 68.9969 15.7224C68.9969 15.5996 68.9494 15.4982 68.8545 15.4182C68.7615 15.3382 68.6164 15.2768 68.4192 15.2341L67.688 15.0806C67.2769 14.995 66.9727 14.8508 66.7755 14.648C66.5783 14.4433 66.4806 14.1847 66.4824 13.8722C66.4806 13.608 66.5522 13.3792 66.6973 13.1857C66.8443 12.9903 67.048 12.8396 67.3085 12.7336C67.5708 12.6257 67.8731 12.5717 68.2155 12.5717C68.7178 12.5717 69.1132 12.6787 69.4015 12.8926C69.6918 13.1066 69.8713 13.3959 69.9401 13.7606ZM74.2532 13.7606L73.3323 13.861C73.3062 13.768 73.2606 13.6806 73.1955 13.5987C73.1322 13.5168 73.0467 13.4508 72.9388 13.4005C72.8309 13.3503 72.6988 13.3252 72.5425 13.3252C72.3322 13.3252 72.1555 13.3708 72.0122 13.4619C71.8708 13.5531 71.8011 13.6712 71.8029 13.8164C71.8011 13.941 71.8467 14.0424 71.9397 14.1206C72.0346 14.1987 72.1908 14.2629 72.4085 14.3131L73.1397 14.4694C73.5453 14.5568 73.8467 14.6954 74.0439 14.8852C74.243 15.075 74.3434 15.3234 74.3453 15.6303C74.3434 15.9001 74.2644 16.1382 74.1081 16.3448C73.9537 16.5494 73.7388 16.7094 73.4634 16.8248C73.1881 16.9401 72.8718 16.9978 72.5146 16.9978C71.9899 16.9978 71.5676 16.888 71.2476 16.6685C70.9276 16.4471 70.7369 16.1392 70.6755 15.7448L71.6606 15.6499C71.7053 15.8434 71.8001 15.9894 71.9453 16.088C72.0904 16.1866 72.2792 16.2359 72.5118 16.2359C72.7518 16.2359 72.9443 16.1866 73.0895 16.088C73.2364 15.9894 73.3099 15.8675 73.3099 15.7224C73.3099 15.5996 73.2625 15.4982 73.1676 15.4182C73.0746 15.3382 72.9295 15.2768 72.7322 15.2341L72.0011 15.0806C71.5899 14.995 71.2857 14.8508 71.0885 14.648C70.8913 14.4433 70.7936 14.1847 70.7955 13.8722C70.7936 13.608 70.8653 13.3792 71.0104 13.1857C71.1574 12.9903 71.3611 12.8396 71.6215 12.7336C71.8839 12.6257 72.1862 12.5717 72.5285 12.5717C73.0309 12.5717 73.4262 12.6787 73.7146 12.8926C74.0048 13.1066 74.1843 13.3959 74.2532 13.7606ZM77.1723 16.9141V11.1987H79.3156C79.7546 11.1987 80.123 11.2805 80.4207 11.4443C80.7202 11.608 80.9463 11.8331 81.0988 12.1196C81.2532 12.4043 81.3304 12.728 81.3304 13.0908C81.3304 13.4573 81.2532 13.7829 81.0988 14.0675C80.9444 14.3522 80.7165 14.5764 80.4151 14.7401C80.1137 14.902 79.7425 14.9829 79.3016 14.9829H77.8811V14.1317H79.1621C79.4188 14.1317 79.629 14.0871 79.7928 13.9978C79.9565 13.9085 80.0774 13.7857 80.1556 13.6294C80.2356 13.4731 80.2756 13.2936 80.2756 13.0908C80.2756 12.888 80.2356 12.7094 80.1556 12.555C80.0774 12.4005 79.9556 12.2805 79.79 12.195C79.6262 12.1075 79.4151 12.0638 79.1565 12.0638H78.2076V16.9141H77.1723ZM82.1851 16.9141V12.6275H83.1646V13.3419H83.2093C83.2874 13.0945 83.4214 12.9038 83.6112 12.7698C83.8028 12.634 84.0214 12.5661 84.267 12.5661C84.3228 12.5661 84.3851 12.5689 84.454 12.5745C84.5247 12.5782 84.5833 12.5847 84.6298 12.594V13.5233C84.587 13.5085 84.5191 13.4954 84.426 13.4843C84.3349 13.4712 84.2465 13.4647 84.1609 13.4647C83.9767 13.4647 83.8112 13.5047 83.6642 13.5847C83.5191 13.6629 83.4046 13.7717 83.3209 13.9113C83.2372 14.0508 83.1953 14.2117 83.1953 14.394V16.9141H82.1851ZM87.0221 16.9978C86.5923 16.9978 86.2212 16.9085 85.9086 16.7299C85.5979 16.5494 85.3588 16.2945 85.1914 15.9652C85.024 15.6341 84.9402 15.2443 84.9402 14.7959C84.9402 14.355 85.024 13.968 85.1914 13.635C85.3607 13.3001 85.597 13.0396 85.9002 12.8536C86.2035 12.6657 86.5598 12.5717 86.9691 12.5717C87.2333 12.5717 87.4826 12.6145 87.717 12.7001C87.9533 12.7838 88.1617 12.914 88.3421 13.0908C88.5245 13.2675 88.6677 13.4926 88.7719 13.7661C88.8761 14.0378 88.9282 14.3615 88.9282 14.7373V15.0471H85.4147V14.3661H87.9598C87.9579 14.1726 87.9161 14.0006 87.8342 13.8499C87.7524 13.6973 87.6379 13.5773 87.491 13.4899C87.3458 13.4024 87.1765 13.3587 86.983 13.3587C86.7765 13.3587 86.5951 13.4089 86.4389 13.5094C86.2826 13.608 86.1607 13.7382 86.0733 13.9001C85.9877 14.0601 85.944 14.2359 85.9421 14.4275V15.022C85.9421 15.2713 85.9877 15.4852 86.0789 15.6638C86.17 15.8406 86.2975 15.9764 86.4612 16.0713C86.6249 16.1643 86.8165 16.2108 87.0361 16.2108C87.183 16.2108 87.3161 16.1903 87.4351 16.1494C87.5542 16.1066 87.6575 16.0443 87.7449 15.9624C87.8324 15.8806 87.8984 15.7792 87.9431 15.6582L88.8863 15.7643C88.8268 16.0136 88.7133 16.2313 88.5458 16.4173C88.3803 16.6015 88.1682 16.7448 87.9096 16.8471C87.651 16.9476 87.3551 16.9978 87.0221 16.9978ZM93.4889 12.6275L91.9624 16.9141H90.8461L89.3196 12.6275H90.3968L91.3819 15.8117H91.4266L92.4145 12.6275H93.4889ZM95.2987 17.0006C95.0271 17.0006 94.7824 16.9522 94.5647 16.8555C94.3489 16.7569 94.1777 16.6117 94.0512 16.4201C93.9266 16.2285 93.8643 15.9922 93.8643 15.7113C93.8643 15.4694 93.9089 15.2694 93.9982 15.1113C94.0875 14.9531 94.2094 14.8266 94.3638 14.7317C94.5182 14.6368 94.6922 14.5652 94.8857 14.5168C95.081 14.4666 95.2829 14.4303 95.4912 14.408C95.7424 14.382 95.9461 14.3587 96.1024 14.3382C96.2587 14.3159 96.3722 14.2824 96.4429 14.2378C96.5154 14.1913 96.5517 14.1196 96.5517 14.0229V14.0061C96.5517 13.7959 96.4894 13.6331 96.3647 13.5178C96.2401 13.4024 96.0605 13.3447 95.8261 13.3447C95.5787 13.3447 95.3824 13.3987 95.2373 13.5066C95.094 13.6145 94.9973 13.7419 94.9471 13.8889L94.0038 13.755C94.0782 13.4945 94.201 13.2768 94.3722 13.1019C94.5433 12.9252 94.7526 12.7931 95.0001 12.7057C95.2475 12.6164 95.521 12.5717 95.8205 12.5717C96.0271 12.5717 96.2326 12.5959 96.4373 12.6443C96.6419 12.6926 96.8289 12.7726 96.9982 12.8843C97.1675 12.994 97.3033 13.1438 97.4057 13.3336C97.5099 13.5233 97.562 13.7606 97.562 14.0452V16.9141H96.5908V16.3252H96.5573C96.4959 16.4443 96.4094 16.5559 96.2978 16.6601C96.188 16.7624 96.0494 16.8452 95.8819 16.9085C95.7164 16.9699 95.5219 17.0006 95.2987 17.0006ZM95.561 16.2582C95.7638 16.2582 95.9396 16.2182 96.0885 16.1382C96.2373 16.0564 96.3517 15.9485 96.4317 15.8145C96.5136 15.6806 96.5545 15.5345 96.5545 15.3764V14.8713C96.5229 14.8973 96.4689 14.9215 96.3926 14.9438C96.3182 14.9661 96.2345 14.9857 96.1415 15.0024C96.0485 15.0192 95.9564 15.034 95.8652 15.0471C95.774 15.0601 95.695 15.0713 95.628 15.0806C95.4773 15.101 95.3424 15.1345 95.2233 15.181C95.1043 15.2275 95.0103 15.2927 94.9415 15.3764C94.8726 15.4582 94.8382 15.5643 94.8382 15.6945C94.8382 15.8806 94.9061 16.021 95.0419 16.1159C95.1778 16.2108 95.3508 16.2582 95.561 16.2582ZM99.588 14.4024V16.9141H98.5778V12.6275H99.5434V13.3559H99.5936C99.6922 13.1159 99.8494 12.9252 100.065 12.7838C100.283 12.6424 100.552 12.5717 100.872 12.5717C101.168 12.5717 101.425 12.635 101.645 12.7615C101.866 12.888 102.037 13.0712 102.158 13.3112C102.281 13.5512 102.342 13.8424 102.34 14.1847V16.9141H101.329V14.341C101.329 14.0545 101.255 13.8303 101.106 13.6685C100.959 13.5066 100.755 13.4257 100.495 13.4257C100.318 13.4257 100.161 13.4647 100.023 13.5429C99.8876 13.6192 99.7806 13.7299 99.7024 13.875C99.6262 14.0201 99.588 14.1959 99.588 14.4024ZM105.507 12.6275V13.4089H103.043V12.6275H105.507ZM103.651 11.6005H104.662V15.6248C104.662 15.7606 104.682 15.8648 104.723 15.9373C104.766 16.008 104.822 16.0564 104.89 16.0824C104.959 16.1085 105.035 16.1215 105.119 16.1215C105.182 16.1215 105.24 16.1168 105.292 16.1075C105.346 16.0982 105.387 16.0899 105.415 16.0824L105.585 16.8722C105.531 16.8908 105.454 16.9113 105.354 16.9336C105.255 16.9559 105.134 16.9689 104.991 16.9727C104.738 16.9801 104.51 16.942 104.307 16.8582C104.104 16.7727 103.943 16.6406 103.824 16.462C103.707 16.2834 103.649 16.0601 103.651 15.7922V11.6005ZM106.352 16.9141V12.6275H107.362V16.9141H106.352ZM106.86 12.0191C106.7 12.0191 106.562 11.9661 106.447 11.8601C106.332 11.7522 106.274 11.6229 106.274 11.4722C106.274 11.3196 106.332 11.1903 106.447 11.0843C106.562 10.9763 106.7 10.9224 106.86 10.9224C107.022 10.9224 107.159 10.9763 107.273 11.0843C107.388 11.1903 107.446 11.3196 107.446 11.4722C107.446 11.6229 107.388 11.7522 107.273 11.8601C107.159 11.9661 107.022 12.0191 106.86 12.0191ZM110.271 16.9978C109.852 16.9978 109.489 16.9057 109.183 16.7215C108.876 16.5373 108.637 16.2796 108.468 15.9485C108.301 15.6173 108.217 15.2303 108.217 14.7875C108.217 14.3447 108.301 13.9568 108.468 13.6238C108.637 13.2908 108.876 13.0322 109.183 12.848C109.489 12.6638 109.852 12.5717 110.271 12.5717C110.689 12.5717 111.052 12.6638 111.359 12.848C111.666 13.0322 111.903 13.2908 112.071 13.6238C112.24 13.9568 112.325 14.3447 112.325 14.7875C112.325 15.2303 112.24 15.6173 112.071 15.9485C111.903 16.2796 111.666 16.5373 111.359 16.7215C111.052 16.9057 110.689 16.9978 110.271 16.9978ZM110.276 16.1885C110.503 16.1885 110.693 16.1262 110.846 16.0015C110.998 15.875 111.112 15.7057 111.186 15.4936C111.263 15.2815 111.301 15.0452 111.301 14.7847C111.301 14.5224 111.263 14.2852 111.186 14.0731C111.112 13.8592 110.998 13.6889 110.846 13.5624C110.693 13.4359 110.503 13.3726 110.276 13.3726C110.044 13.3726 109.85 13.4359 109.696 13.5624C109.543 13.6889 109.429 13.8592 109.353 14.0731C109.278 14.2852 109.241 14.5224 109.241 14.7847C109.241 15.0452 109.278 15.2815 109.353 15.4936C109.429 15.7057 109.543 15.875 109.696 16.0015C109.85 16.1262 110.044 16.1885 110.276 16.1885ZM114.193 14.4024V16.9141H113.182V12.6275H114.148V13.3559H114.198C114.297 13.1159 114.454 12.9252 114.67 12.7838C114.887 12.6424 115.156 12.5717 115.476 12.5717C115.772 12.5717 116.03 12.635 116.249 12.7615C116.471 12.888 116.642 13.0712 116.763 13.3112C116.886 13.5512 116.946 13.8424 116.944 14.1847V16.9141H115.934V14.341C115.934 14.0545 115.86 13.8303 115.711 13.6685C115.564 13.5066 115.36 13.4257 115.1 13.4257C114.923 13.4257 114.766 13.4647 114.628 13.5429C114.492 13.6192 114.385 13.7299 114.307 13.875C114.231 14.0201 114.193 14.1959 114.193 14.4024Z" fill="#4D4BA6"/>
<defs>
<clipPath id="clip0_1330_7183">
<rect width="14.4075" height="14.4075" fill="white" transform="translate(238.238 6.71094)"/>
</clipPath>
<clipPath id="clip1_1330_7183">
<rect width="14.4075" height="14.4075" fill="white" transform="translate(5.23828 6.71094)"/>
</clipPath>
</defs>
</svg>
