<svg width="31" height="30" viewBox="0 0 31 30" fill="none" xmlns="http://www.w3.org/2000/svg">
<path fill-rule="evenodd" clip-rule="evenodd" d="M9.8456 2.992C11.726 2.78158 13.6125 2.67304 15.5 2.66667C17.4427 2.66667 19.3605 2.79733 21.1544 2.992C23.312 3.22667 24.7091 3.38667 25.7755 3.712C26.7468 4.008 27.2903 4.4 27.7574 5.016C27.807 5.08267 27.8814 5.184 27.9269 5.256C28.3402 5.86933 28.6089 6.63733 28.7639 8.088C28.9292 9.64267 28.9333 11.6693 28.9333 14.7333C28.9333 17.76 28.9292 19.76 28.7639 21.2933C28.6109 22.7227 28.3423 23.4827 27.9269 24.104C27.8714 24.186 27.8142 24.266 27.7553 24.344C27.28 24.968 26.7427 25.3547 25.7961 25.6427C24.7483 25.9627 23.3823 26.1173 21.2619 26.3467C19.4659 26.5387 17.5171 26.6667 15.5 26.6667C13.4829 26.6667 11.532 26.5387 9.73813 26.3467C7.61773 26.1173 6.25167 25.9627 5.20387 25.6427C4.25527 25.3547 3.71793 24.968 3.24467 24.344C3.18585 24.266 3.12865 24.186 3.07313 24.104C2.6598 23.4827 2.39113 22.7227 2.23613 21.2933C2.0708 19.76 2.06667 17.76 2.06667 14.7333C2.06667 11.6693 2.0708 9.64 2.23613 8.088C2.39113 6.63733 2.6598 5.86933 3.07313 5.256C3.12067 5.184 3.193 5.08267 3.2426 5.016C3.70967 4.4 4.2532 4.008 5.22453 3.712C6.293 3.38667 7.688 3.22667 9.8456 2.992ZM0 14.7333C0 8.75467 0 5.76533 1.50867 3.512C1.58307 3.4 1.68433 3.25867 1.76493 3.152C3.37693 1.02133 5.47667 0.792 9.672 0.336C11.5113 0.133333 13.4891 0 15.5 0C17.5109 0 19.4887 0.133333 21.328 0.336C25.5233 0.792 27.6231 1.02133 29.2351 3.152C29.3157 3.25867 29.4149 3.4 29.4913 3.512C31 5.76533 31 8.75467 31 14.7333C31 20.64 31 23.5947 29.4893 25.848C29.4058 25.9711 29.3197 26.0912 29.2309 26.208C27.6169 28.3387 25.5564 28.56 21.4334 29.0027C19.592 29.2027 17.5832 29.3333 15.5 29.3333C13.4168 29.3333 11.408 29.2 9.56867 29.0027C5.4436 28.56 3.38313 28.336 1.76907 26.208C1.68039 26.0911 1.59425 25.9711 1.51073 25.848C0 23.5947 0 20.64 0 14.7333ZM10.85 9.02133C10.8497 8.91044 10.8708 8.80121 10.9115 8.70352C10.9522 8.60583 11.0111 8.52277 11.0829 8.46187C11.1547 8.40097 11.2372 8.36415 11.3228 8.35474C11.4085 8.34534 11.4946 8.36364 11.5733 8.408L21.5512 14.056C21.9645 14.2907 21.9645 15.0427 21.5512 15.2773L11.5733 20.9227C11.4947 20.9669 11.4088 20.9853 11.3234 20.976C11.2379 20.9667 11.1556 20.9301 11.0838 20.8695C11.012 20.8089 10.9531 20.7262 10.9123 20.6289C10.8714 20.5316 10.85 20.4227 10.85 20.312V9.02133Z" fill="white"/>
</svg>
